<?xml version="1.0" encoding="UTF-8"?>
<!DOCTYPE svg PUBLIC "-//W3C//DTD SVG 1.1//EN" "http://www.w3.org/Graphics/SVG/1.1/DTD/svg11.dtd">
<svg xmlns="http://www.w3.org/2000/svg" version="1.1" width="1024px" height="1024px" style="shape-rendering:geometricPrecision; text-rendering:geometricPrecision; image-rendering:optimizeQuality; fill-rule:evenodd; clip-rule:evenodd" xmlns:xlink="http://www.w3.org/1999/xlink">
<g><path style="opacity:1" fill="#f9f9f9" d="M 478.5,-0.5 C 500.5,-0.5 522.5,-0.5 544.5,-0.5C 705.812,13.3825 834.312,85.0492 930,214.5C 985.288,293.858 1016.45,381.858 1023.5,478.5C 1023.5,500.5 1023.5,522.5 1023.5,544.5C 1009.62,705.812 937.951,834.312 808.5,930C 729.142,985.288 641.142,1016.45 544.5,1023.5C 522.5,1023.5 500.5,1023.5 478.5,1023.5C 317.188,1009.62 188.688,937.951 93,808.5C 37.7122,729.142 6.5455,641.142 -0.5,544.5C -0.5,522.5 -0.5,500.5 -0.5,478.5C 13.3825,317.188 85.0492,188.688 214.5,93C 293.858,37.7122 381.858,6.5455 478.5,-0.5 Z"/></g>
<g><path style="opacity:1" fill="#f2f7f7" d="M 250.5,381.5 C 249.5,381.5 248.5,381.5 247.5,381.5C 247.5,380.5 247.5,379.5 247.5,378.5C 250.585,370.188 253.085,361.521 255,352.5C 257.007,351.331 259.173,350.665 261.5,350.5C 263.562,358.686 266.229,366.686 269.5,374.5C 263.178,377.05 256.845,379.383 250.5,381.5 Z"/></g>
<g><path style="opacity:1" fill="#1ca29d" d="M 286.5,372.5 C 284.208,372.756 282.041,372.423 280,371.5C 277.677,375.319 274.844,378.652 271.5,381.5C 267.777,382.297 264.11,383.297 260.5,384.5C 259.014,380.644 256.848,379.978 254,382.5C 252.989,381.663 251.822,381.33 250.5,381.5C 256.845,379.383 263.178,377.05 269.5,374.5C 266.229,366.686 263.562,358.686 261.5,350.5C 259.173,350.665 257.007,351.331 255,352.5C 253.085,361.521 250.585,370.188 247.5,378.5C 247.723,375.886 246.556,374.219 244,373.5C 243.501,368.511 243.334,363.511 243.5,358.5C 241.488,359.014 239.488,359.18 237.5,359C 238.337,357.989 238.67,356.822 238.5,355.5C 234.617,354.082 231.283,355.082 228.5,358.5C 230.184,359.854 230.684,361.521 230,363.5C 229.396,361.314 228.23,361.148 226.5,363C 227.167,363.333 227.833,363.667 228.5,364C 226.461,365.926 224.794,368.093 223.5,370.5C 223.548,367.687 224.215,365.021 225.5,362.5C 225.167,362.167 224.833,361.833 224.5,361.5C 216.761,363.636 209.094,365.969 201.5,368.5C 201.539,367.417 201.873,366.417 202.5,365.5C 202,365.167 201.5,364.833 201,364.5C 198.4,364.366 195.9,364.366 193.5,364.5C 217.984,356.541 242.651,348.874 267.5,341.5C 269.593,341.486 271.426,342.152 273,343.5C 276.344,352.698 279.178,362.031 281.5,371.5C 283.415,371.216 285.081,371.549 286.5,372.5 Z"/></g>
<g><path style="opacity:1" fill="#f4f7f7" d="M 223.5,370.5 C 221.053,377.273 219.053,384.273 217.5,391.5C 210.178,392.723 203.178,394.723 196.5,397.5C 196.167,397.5 195.833,397.5 195.5,397.5C 194.876,397.083 194.543,396.416 194.5,395.5C 196.685,386.427 199.018,377.427 201.5,368.5C 209.094,365.969 216.761,363.636 224.5,361.5C 224.833,361.833 225.167,362.167 225.5,362.5C 224.215,365.021 223.548,367.687 223.5,370.5 Z"/></g>
<g><path style="opacity:1" fill="#119690" d="M 201.5,368.5 C 199.018,377.427 196.685,386.427 194.5,395.5C 194.543,396.416 194.876,397.083 195.5,397.5C 195.44,398.043 195.107,398.376 194.5,398.5C 193.5,395.833 192.5,393.167 191.5,390.5C 189.562,393.079 187.729,393.079 186,390.5C 184.627,390.404 183.127,390.57 181.5,391C 183.558,387.603 186.558,385.937 190.5,386C 192.125,385.147 192.458,384.147 191.5,383C 188.959,382.619 186.626,381.786 184.5,380.5C 181.946,380.98 179.612,381.98 177.5,383.5C 174.208,382.109 173.875,380.276 176.5,378C 175.128,377.598 173.795,377.098 172.5,376.5C 171.893,376.624 171.56,376.957 171.5,377.5C 169.167,378.167 166.833,378.833 164.5,379.5C 164.082,378.778 163.416,378.278 162.5,378C 163.84,375.851 163.173,374.684 160.5,374.5C 171.263,370.721 182.263,367.388 193.5,364.5C 195.9,364.366 198.4,364.366 201,364.5C 201.5,364.833 202,365.167 202.5,365.5C 201.873,366.417 201.539,367.417 201.5,368.5 Z"/></g>
<g><path style="opacity:1" fill="#119b98" d="M 247.5,378.5 C 247.5,379.5 247.5,380.5 247.5,381.5C 248.5,381.5 249.5,381.5 250.5,381.5C 251.822,381.33 252.989,381.663 254,382.5C 256.848,379.978 259.014,380.644 260.5,384.5C 242.868,389.991 225.201,395.324 207.5,400.5C 207.881,399.069 208.881,398.236 210.5,398C 208.567,397.749 206.734,397.249 205,396.5C 203.983,399.028 202.816,399.028 201.5,396.5C 200.522,396.977 199.689,397.643 199,398.5C 198.329,397.748 197.496,397.414 196.5,397.5C 203.178,394.723 210.178,392.723 217.5,391.5C 219.053,384.273 221.053,377.273 223.5,370.5C 224.794,368.093 226.461,365.926 228.5,364C 227.833,363.667 227.167,363.333 226.5,363C 228.23,361.148 229.396,361.314 230,363.5C 230.684,361.521 230.184,359.854 228.5,358.5C 231.283,355.082 234.617,354.082 238.5,355.5C 238.67,356.822 238.337,357.989 237.5,359C 239.488,359.18 241.488,359.014 243.5,358.5C 243.334,363.511 243.501,368.511 244,373.5C 246.556,374.219 247.723,375.886 247.5,378.5 Z"/></g>
<g><path style="opacity:1" fill="#129aa9" d="M 286.5,372.5 C 287.833,372.5 289.167,372.5 290.5,372.5C 290.5,376.833 290.5,381.167 290.5,385.5C 286.214,386.389 282.048,387.722 278,389.5C 276.674,389.245 275.674,388.578 275,387.5C 274.505,385.527 274.338,383.527 274.5,381.5C 273.5,381.5 272.5,381.5 271.5,381.5C 274.844,378.652 277.677,375.319 280,371.5C 282.041,372.423 284.208,372.756 286.5,372.5 Z"/></g>
<g><path style="opacity:1" fill="#128181" d="M 160.5,374.5 C 163.173,374.684 163.84,375.851 162.5,378C 163.416,378.278 164.082,378.778 164.5,379.5C 158.867,381.324 153.2,382.991 147.5,384.5C 145.637,382.295 143.303,380.961 140.5,380.5C 146.987,378.207 153.654,376.207 160.5,374.5 Z"/></g>
<g><path style="opacity:1" fill="#f3f5f6" d="M 171.5,377.5 C 172.043,377.56 172.376,377.893 172.5,378.5C 169.209,387.667 166.542,397.001 164.5,406.5C 163.167,407.167 161.833,407.833 160.5,408.5C 154.561,409.594 148.894,411.261 143.5,413.5C 142.325,413.719 141.325,413.386 140.5,412.5C 143.09,403.212 145.423,393.879 147.5,384.5C 153.2,382.991 158.867,381.324 164.5,379.5C 166.833,378.833 169.167,378.167 171.5,377.5 Z"/></g>
<g><path style="opacity:1" fill="#0f344e" d="M 140.5,380.5 C 143.303,380.961 145.637,382.295 147.5,384.5C 145.423,393.879 143.09,403.212 140.5,412.5C 141.325,413.386 142.325,413.719 143.5,413.5C 147.449,413.693 147.449,414.193 143.5,415C 145.093,415.949 146.426,417.115 147.5,418.5C 142.062,419.859 136.728,421.526 131.5,423.5C 131.063,421.926 130.063,420.759 128.5,420C 131.484,417.174 134.817,414.841 138.5,413C 137.874,412.25 137.374,411.416 137,410.5C 136.667,410.833 136.333,411.167 136,411.5C 131.616,407.289 126.783,403.622 121.5,400.5C 120.887,399.02 120.554,397.687 120.5,396.5C 119.792,398.745 118.792,400.745 117.5,402.5C 117.548,399.687 118.215,397.021 119.5,394.5C 115.808,394.102 112.142,394.768 108.5,396.5C 107.132,395.694 105.799,394.694 104.5,393.5C 102.518,394.623 100.518,394.623 98.5,393.5C 112.284,388.796 126.284,384.463 140.5,380.5 Z"/></g>
<g><path style="opacity:1" fill="#0d8789" d="M 171.5,377.5 C 171.56,376.957 171.893,376.624 172.5,376.5C 173.795,377.098 175.128,377.598 176.5,378C 173.875,380.276 174.208,382.109 177.5,383.5C 179.612,381.98 181.946,380.98 184.5,380.5C 186.626,381.786 188.959,382.619 191.5,383C 192.458,384.147 192.125,385.147 190.5,386C 186.558,385.937 183.558,387.603 181.5,391C 183.127,390.57 184.627,390.404 186,390.5C 187.729,393.079 189.562,393.079 191.5,390.5C 192.5,393.167 193.5,395.833 194.5,398.5C 195.107,398.376 195.44,398.043 195.5,397.5C 195.833,397.5 196.167,397.5 196.5,397.5C 197.496,397.414 198.329,397.748 199,398.5C 199.689,397.643 200.522,396.977 201.5,396.5C 202.816,399.028 203.983,399.028 205,396.5C 206.734,397.249 208.567,397.749 210.5,398C 208.881,398.236 207.881,399.069 207.5,400.5C 197.5,403.5 187.5,406.5 177.5,409.5C 175.866,408.028 174.366,406.362 173,404.5C 172.667,404.833 172.333,405.167 172,405.5C 171.592,403.59 170.425,402.59 168.5,402.5C 166.712,403.437 165.379,404.77 164.5,406.5C 166.542,397.001 169.209,387.667 172.5,378.5C 172.376,377.893 172.043,377.56 171.5,377.5 Z"/></g>
<g><path style="opacity:1" fill="#f1f2f3" d="M 117.5,402.5 C 114.693,409.255 112.693,416.255 111.5,423.5C 103.669,425.599 96.002,427.932 88.5,430.5C 88.1667,430.5 87.8333,430.5 87.5,430.5C 86.8968,428.374 86.8968,426.041 87.5,423.5C 90.1065,415.346 93.1065,407.346 96.5,399.5C 100.484,398.512 104.484,397.512 108.5,396.5C 112.142,394.768 115.808,394.102 119.5,394.5C 118.215,397.021 117.548,399.687 117.5,402.5 Z"/></g>
<g><path style="opacity:1" fill="#0e2c45" d="M 96.5,399.5 C 93.1065,407.346 90.1065,415.346 87.5,423.5C 87.1219,420.978 86.2886,418.645 85,416.5C 84.3333,418.5 83,419.833 81,420.5C 80.6827,418.699 80.016,418.366 79,419.5C 74.4605,418.63 71.4605,415.964 70,411.5C 69,411.5 68,411.5 67,411.5C 66.3333,410.5 66.3333,409.5 67,408.5C 72.1551,408.029 77.8218,408.029 84,408.5C 83.9266,404.639 85.76,402.306 89.5,401.5C 90.1831,398.539 91.0164,398.205 92,400.5C 93.3561,399.62 94.8561,399.286 96.5,399.5 Z"/></g>
<g><path style="opacity:1" fill="#122b4b" d="M 131.5,423.5 C 119.42,426.854 107.42,430.521 95.5,434.5C 95.5,433.5 95.5,432.5 95.5,431.5C 93.0971,431.552 90.7638,431.219 88.5,430.5C 96.002,427.932 103.669,425.599 111.5,423.5C 112.693,416.255 114.693,409.255 117.5,402.5C 118.792,400.745 119.792,398.745 120.5,396.5C 120.554,397.687 120.887,399.02 121.5,400.5C 126.783,403.622 131.616,407.289 136,411.5C 136.333,411.167 136.667,410.833 137,410.5C 137.374,411.416 137.874,412.25 138.5,413C 134.817,414.841 131.484,417.174 128.5,420C 130.063,420.759 131.063,421.926 131.5,423.5 Z"/></g>
<g><path style="opacity:1" fill="#21979d" d="M 257.5,397.5 C 262.833,397.5 268.167,397.5 273.5,397.5C 273.5,401.5 273.5,405.5 273.5,409.5C 268.213,410.342 262.88,410.676 257.5,410.5C 257.5,406.167 257.5,401.833 257.5,397.5 Z"/></g>
<g><path style="opacity:1" fill="#0a6571" d="M 177.5,409.5 C 174.167,410.5 170.833,411.5 167.5,412.5C 164.875,411.559 164.875,410.393 167.5,409C 165.359,409.086 163.026,408.919 160.5,408.5C 161.833,407.833 163.167,407.167 164.5,406.5C 165.379,404.77 166.712,403.437 168.5,402.5C 170.425,402.59 171.592,403.59 172,405.5C 172.333,405.167 172.667,404.833 173,404.5C 174.366,406.362 175.866,408.028 177.5,409.5 Z"/></g>
<g><path style="opacity:1" fill="#0e2746" d="M 98.5,393.5 C 100.518,394.623 102.518,394.623 104.5,393.5C 105.799,394.694 107.132,395.694 108.5,396.5C 104.484,397.512 100.484,398.512 96.5,399.5C 94.8561,399.286 93.3561,399.62 92,400.5C 91.0164,398.205 90.1831,398.539 89.5,401.5C 85.76,402.306 83.9266,404.639 84,408.5C 77.8218,408.029 72.1551,408.029 67,408.5C 66.3333,409.5 66.3333,410.5 67,411.5C 68,411.5 69,411.5 70,411.5C 71.4605,415.964 74.4605,418.63 79,419.5C 80.016,418.366 80.6827,418.699 81,420.5C 83,419.833 84.3333,418.5 85,416.5C 86.2886,418.645 87.1219,420.978 87.5,423.5C 86.8968,426.041 86.8968,428.374 87.5,430.5C 86.4341,431.692 85.6008,431.359 85,429.5C 81.9745,433.137 78.4745,432.803 74.5,428.5C 69.1117,420.364 62.7784,414.698 55.5,411.5C 53.0878,412.818 50.7544,412.651 48.5,411C 50.433,410.749 52.2663,410.249 54,409.5C 54.9138,410.654 55.7471,410.487 56.5,409C 55.7562,407.961 54.7562,407.461 53.5,407.5C 68.3191,402.61 83.3191,397.943 98.5,393.5 Z"/></g>
<g><path style="opacity:1" fill="#5fc1c4" d="M 293.5,395.5 C 298.64,394.512 303.974,394.179 309.5,394.5C 309.5,399.833 309.5,405.167 309.5,410.5C 303.833,410.5 298.167,410.5 292.5,410.5C 292.179,405.305 292.513,400.305 293.5,395.5 Z"/></g>
<g><path style="opacity:1" fill="#09a0a5" d="M 293.5,395.5 C 298.5,395.5 303.5,395.5 308.5,395.5C 308.5,400.167 308.5,404.833 308.5,409.5C 303.5,409.5 298.5,409.5 293.5,409.5C 293.5,404.833 293.5,400.167 293.5,395.5 Z"/></g>
<g><path style="opacity:1" fill="#101f43" d="M 53.5,407.5 C 54.7562,407.461 55.7562,407.961 56.5,409C 55.7471,410.487 54.9138,410.654 54,409.5C 52.2663,410.249 50.433,410.749 48.5,411C 50.7544,412.651 53.0878,412.818 55.5,411.5C 62.7784,414.698 69.1117,420.364 74.5,428.5C 72.9064,428.92 71.4064,429.586 70,430.5C 66.8571,429.582 64.6904,428.248 63.5,426.5C 62.8333,426.667 62.1667,426.833 61.5,427C 62.6956,427.654 62.6956,428.154 61.5,428.5C 60.8281,427.051 60.1614,425.718 59.5,424.5C 55.7469,419.28 51.9136,419.28 48,424.5C 47.3365,430.667 50.1698,433.334 56.5,432.5C 57.3764,432.369 58.0431,432.702 58.5,433.5C 55.8791,434.58 53.7124,436.247 52,438.5C 51.6667,438.167 51.3333,437.833 51,437.5C 46.8497,439.075 42.683,440.409 38.5,441.5C 38.5,442.5 38.5,443.5 38.5,444.5C 56.3313,444.973 73.998,445.64 91.5,446.5C 90.5,446.5 89.5,446.5 88.5,446.5C 70.8333,446.5 53.1667,446.5 35.5,446.5C 35.5,437.5 35.5,428.5 35.5,419.5C 38.9678,412.081 44.9678,408.081 53.5,407.5 Z"/></g>
<g><path style="opacity:1" fill="#0a4053" d="M 160.5,408.5 C 163.026,408.919 165.359,409.086 167.5,409C 164.875,410.393 164.875,411.559 167.5,412.5C 160.762,414.302 154.095,416.302 147.5,418.5C 146.426,417.115 145.093,415.949 143.5,415C 147.449,414.193 147.449,413.693 143.5,413.5C 148.894,411.261 154.561,409.594 160.5,408.5 Z"/></g>
<g><path style="opacity:1" fill="#3db8bd" d="M 241.5,412.5 C 243.5,412.5 245.5,412.5 247.5,412.5C 247.005,415.997 245.172,416.997 242,415.5C 241.517,414.552 241.351,413.552 241.5,412.5 Z"/></g>
<g><path style="opacity:1" fill="#88ccca" d="M 233.5,416.5 C 231.167,416.5 228.833,416.5 226.5,416.5C 226.5,418.833 226.5,421.167 226.5,423.5C 228.833,423.5 231.167,423.5 233.5,423.5C 231.052,424.473 228.385,424.806 225.5,424.5C 225.5,421.5 225.5,418.5 225.5,415.5C 228.385,415.194 231.052,415.527 233.5,416.5 Z"/></g>
<g><path style="opacity:1" fill="#18a7a0" d="M 233.5,416.5 C 233.5,418.833 233.5,421.167 233.5,423.5C 231.167,423.5 228.833,423.5 226.5,423.5C 226.5,421.167 226.5,418.833 226.5,416.5C 228.833,416.5 231.167,416.5 233.5,416.5 Z"/></g>
<g><path style="opacity:1" fill="#ebecef" d="M 59.5,424.5 C 59.9844,427.788 58.9844,430.455 56.5,432.5C 50.1698,433.334 47.3365,430.667 48,424.5C 51.9136,419.28 55.7469,419.28 59.5,424.5 Z"/></g>
<g><path style="opacity:1" fill="#0e90a1" d="M 276.5,419.5 C 277.475,421.193 278.808,422.693 280.5,424C 278.523,426.043 277.523,428.543 277.5,431.5C 273.833,431.5 270.167,431.5 266.5,431.5C 266.5,427.5 266.5,423.5 266.5,419.5C 269.833,419.5 273.167,419.5 276.5,419.5 Z"/></g>
<g><path style="opacity:1" fill="#22969e" d="M 184.5,417.5 C 187.833,417.5 191.167,417.5 194.5,417.5C 194.5,420.167 194.5,422.833 194.5,425.5C 191.214,426.207 187.881,426.54 184.5,426.5C 184.5,423.5 184.5,420.5 184.5,417.5 Z"/></g>
<g><path style="opacity:1" fill="#28a6b2" d="M 276.5,419.5 C 280.75,420.272 285.083,420.772 289.5,421C 291.609,431.223 287.609,434.723 277.5,431.5C 277.523,428.543 278.523,426.043 280.5,424C 278.808,422.693 277.475,421.193 276.5,419.5 Z"/></g>
<g><path style="opacity:1" fill="#0d2140" d="M 59.5,424.5 C 60.1614,425.718 60.8281,427.051 61.5,428.5C 62.6956,428.154 62.6956,427.654 61.5,427C 62.1667,426.833 62.8333,426.667 63.5,426.5C 64.6904,428.248 66.8571,429.582 70,430.5C 71.4064,429.586 72.9064,428.92 74.5,428.5C 78.4745,432.803 81.9745,433.137 85,429.5C 85.6008,431.359 86.4341,431.692 87.5,430.5C 87.8333,430.5 88.1667,430.5 88.5,430.5C 90.7638,431.219 93.0971,431.552 95.5,431.5C 95.5,432.5 95.5,433.5 95.5,434.5C 91.8892,435.653 88.2226,436.653 84.5,437.5C 83.9569,437.56 83.6236,437.893 83.5,438.5C 104.826,439.333 126.159,439.833 147.5,440C 146.874,440.75 146.374,441.584 146,442.5C 141.075,439.702 140.575,440.202 144.5,444C 142.699,444.317 142.366,444.984 143.5,446C 136.508,446.5 129.508,446.666 122.5,446.5C 112.238,445.699 101.905,445.699 91.5,446.5C 73.998,445.64 56.3313,444.973 38.5,444.5C 38.5,443.5 38.5,442.5 38.5,441.5C 42.683,440.409 46.8497,439.075 51,437.5C 51.3333,437.833 51.6667,438.167 52,438.5C 53.7124,436.247 55.8791,434.58 58.5,433.5C 58.0431,432.702 57.3764,432.369 56.5,432.5C 58.9844,430.455 59.9844,427.788 59.5,424.5 Z"/></g>
<g><path style="opacity:1" fill="#132040" d="M 455.5,455.5 C 455.5,452.167 455.5,448.833 455.5,445.5C 457.047,439.804 460.881,436.804 467,436.5C 478.38,438.585 482.38,445.252 479,456.5C 473.896,462.312 467.729,463.812 460.5,461C 457.944,459.945 456.277,458.112 455.5,455.5 Z"/></g>
<g><path style="opacity:1" fill="#0e636b" d="M 148.5,438.5 C 157.833,438.5 167.167,438.5 176.5,438.5C 178.607,439.468 180.941,439.802 183.5,439.5C 183.189,440.478 182.522,441.145 181.5,441.5C 180.284,440.998 179.117,440.665 178,440.5C 177.517,441.448 177.351,442.448 177.5,443.5C 169.826,443.666 162.159,443.5 154.5,443C 157.139,441.054 160.139,440.054 163.5,440C 158.316,439.826 153.316,439.326 148.5,438.5 Z"/></g>
<g><path style="opacity:1" fill="#058482" d="M 183.5,439.5 C 199.17,439.333 214.837,439.5 230.5,440C 231.833,440.667 233.167,441.333 234.5,442C 228.206,441.297 222.206,441.63 216.5,443C 219.634,443.112 221.967,443.612 223.5,444.5C 215.5,444.5 207.5,444.5 199.5,444.5C 199.5,445.5 199.5,446.5 199.5,447.5C 191.889,448.076 184.556,447.41 177.5,445.5C 177.5,445.167 177.5,444.833 177.5,444.5C 177.5,444.167 177.5,443.833 177.5,443.5C 177.351,442.448 177.517,441.448 178,440.5C 179.117,440.665 180.284,440.998 181.5,441.5C 182.522,441.145 183.189,440.478 183.5,439.5 Z"/></g>
<g><path style="opacity:1" fill="#14938f" d="M 176.5,438.5 C 209.835,438.333 243.168,438.5 276.5,439C 278.667,440.5 280.833,442 283,443.5C 283.49,444.793 283.657,446.127 283.5,447.5C 279.154,447.666 274.821,447.499 270.5,447C 269.833,446.333 269.167,445.667 268.5,445C 261.174,444.5 253.841,444.334 246.5,444.5C 246.5,445.5 246.5,446.5 246.5,447.5C 238.559,448.081 230.892,447.414 223.5,445.5C 223.5,445.167 223.5,444.833 223.5,444.5C 221.967,443.612 219.634,443.112 216.5,443C 222.206,441.63 228.206,441.297 234.5,442C 233.167,441.333 231.833,440.667 230.5,440C 214.837,439.5 199.17,439.333 183.5,439.5C 180.941,439.802 178.607,439.468 176.5,438.5 Z"/></g>
<g><path style="opacity:1" fill="#aac3c8" d="M 177.5,444.5 C 177.5,444.833 177.5,445.167 177.5,445.5C 168.235,444.905 159.235,445.572 150.5,447.5C 150.5,446.5 150.5,445.5 150.5,444.5C 159.5,444.5 168.5,444.5 177.5,444.5 Z"/></g>
<g><path style="opacity:1" fill="#8ac4c8" d="M 223.5,444.5 C 223.5,444.833 223.5,445.167 223.5,445.5C 215.228,444.915 207.228,445.582 199.5,447.5C 199.5,446.5 199.5,445.5 199.5,444.5C 207.5,444.5 215.5,444.5 223.5,444.5 Z"/></g>
<g><path style="opacity:1" fill="#54607a" d="M 35.5,419.5 C 35.5,428.5 35.5,437.5 35.5,446.5C 53.1667,446.5 70.8333,446.5 88.5,446.5C 70.6744,447.497 52.6744,447.83 34.5,447.5C 34.1731,437.985 34.5064,428.652 35.5,419.5 Z"/></g>
<g><path style="opacity:1" fill="#1f4559" d="M 84.5,437.5 C 105.66,438.497 126.993,438.831 148.5,438.5C 153.316,439.326 158.316,439.826 163.5,440C 160.139,440.054 157.139,441.054 154.5,443C 162.159,443.5 169.826,443.666 177.5,443.5C 177.5,443.833 177.5,444.167 177.5,444.5C 168.5,444.5 159.5,444.5 150.5,444.5C 150.5,445.5 150.5,446.5 150.5,447.5C 140.985,447.827 131.652,447.494 122.5,446.5C 129.508,446.666 136.508,446.5 143.5,446C 142.366,444.984 142.699,444.317 144.5,444C 140.575,440.202 141.075,439.702 146,442.5C 146.374,441.584 146.874,440.75 147.5,440C 126.159,439.833 104.826,439.333 83.5,438.5C 83.6236,437.893 83.9569,437.56 84.5,437.5 Z"/></g>
<g><path style="opacity:1" fill="#434b68" d="M 455.5,445.5 C 455.5,448.833 455.5,452.167 455.5,455.5C 454.06,454.054 453.393,452.221 453.5,450C 453.307,447.992 453.974,446.492 455.5,445.5 Z"/></g>
<g><path style="opacity:1" fill="#057c7c" d="M 848.5,447.5 C 855.833,447.5 863.167,447.5 870.5,447.5C 870.5,479.833 870.5,512.167 870.5,544.5C 868.87,542.974 868.037,540.974 868,538.5C 867.667,539.167 867.333,539.833 867,540.5C 865.782,537.442 863.949,534.776 861.5,532.5C 858.74,535.784 855.74,536.451 852.5,534.5C 851.717,537.564 850.384,540.231 848.5,542.5C 848.5,533.167 848.5,523.833 848.5,514.5C 850.129,516.858 851.295,519.524 852,522.5C 852.483,521.552 852.649,520.552 852.5,519.5C 855.092,519.454 857.259,518.454 859,516.5C 859.945,516.905 860.612,517.572 861,518.5C 864.597,509.96 867.43,502.46 869.5,496C 868.278,489.918 865.778,484.418 862,479.5C 860.32,481.349 858.82,483.349 857.5,485.5C 855.929,487.415 853.929,488.415 851.5,488.5C 851.716,492.487 851.049,496.32 849.5,500C 849.645,500.772 849.978,501.439 850.5,502C 849.891,503.948 849.224,505.782 848.5,507.5C 848.5,487.5 848.5,467.5 848.5,447.5 Z"/></g>
<g><path style="opacity:1" fill="#5ea8ad" d="M 847.5,447.5 C 847.833,447.5 848.167,447.5 848.5,447.5C 848.5,467.5 848.5,487.5 848.5,507.5C 848.5,509.833 848.5,512.167 848.5,514.5C 848.5,523.833 848.5,533.167 848.5,542.5C 848.5,547.167 848.5,551.833 848.5,556.5C 855.833,556.5 863.167,556.5 870.5,556.5C 870.5,556.833 870.5,557.167 870.5,557.5C 862.833,557.5 855.167,557.5 847.5,557.5C 847.5,520.833 847.5,484.167 847.5,447.5 Z"/></g>
<g><path style="opacity:1" fill="#0a4658" d="M 114.5,451.5 C 128.5,451.5 142.5,451.5 156.5,451.5C 155.737,452.268 154.737,452.768 153.5,453C 154.984,454.574 156.651,455.907 158.5,457C 158.307,458.645 158.14,460.479 158,462.5C 156.372,457.432 152.872,454.932 147.5,455C 149.167,454.667 150.833,454.333 152.5,454C 145.155,453.354 137.822,453.021 130.5,453C 135.474,454.327 140.474,455.494 145.5,456.5C 147.739,458.42 149.239,461.42 150,465.5C 150.763,462.937 151.263,462.937 151.5,465.5C 151.048,467.312 149.882,468.312 148,468.5C 142.575,466.664 137.575,463.331 133,458.5C 132.667,458.833 132.333,459.167 132,459.5C 129.312,456.287 125.812,454.787 121.5,455C 122.167,454.667 122.833,454.333 123.5,454C 118.167,453.333 112.833,453.333 107.5,454C 111.749,455.126 116.082,455.792 120.5,456C 126.166,458.991 131.499,461.824 136.5,464.5C 138.861,469.028 142.361,472.361 147,474.5C 150.42,471.818 151.253,472.651 149.5,477C 151.805,479.882 152.472,479.382 151.5,475.5C 151.899,473.803 152.399,472.137 153,470.5C 153.183,473.365 153.683,476.031 154.5,478.5C 156.287,482.625 159.287,485.292 163.5,486.5C 163.934,493.745 162.934,500.745 160.5,507.5C 159.678,510.665 159.011,513.998 158.5,517.5C 158.253,518.713 157.586,519.38 156.5,519.5C 150.897,513.395 145.064,507.395 139,501.5C 140.587,497.778 141.254,493.778 141,489.5C 140.667,488.167 140.333,486.833 140,485.5C 137.96,483.63 136.127,481.63 134.5,479.5C 134.587,478.502 134.92,477.335 135.5,476C 134,474.5 132.5,473 131,471.5C 130.667,471.833 130.333,472.167 130,472.5C 124.057,466.625 117.557,465.291 110.5,468.5C 104.762,462.996 98.7625,457.996 92.5,453.5C 99.7702,453.217 107.104,452.55 114.5,451.5 Z"/></g>
<g><path style="opacity:1" fill="#0d2b49" d="M 58.5,451.5 C 68.1724,451.334 77.8391,451.5 87.5,452C 83.827,452.818 79.827,453.484 75.5,454C 76.8905,455.02 78.3905,455.853 80,456.5C 82.5865,462.938 85.9199,468.938 90,474.5C 89.9182,479.057 91.0848,483.224 93.5,487C 95.2926,490.677 97.6259,494.51 100.5,498.5C 99.8333,499.5 99.1667,500.5 98.5,501.5C 98.2328,503.76 98.7328,506.093 100,508.5C 102.684,511.869 104.851,515.536 106.5,519.5C 109.85,521.166 112.517,523.5 114.5,526.5C 114.5,529.5 114.5,532.5 114.5,535.5C 119.5,535.5 124.5,535.5 129.5,535.5C 129.5,536.167 129.167,536.5 128.5,536.5C 124.486,536.334 120.486,536.501 116.5,537C 119.397,541.304 121.397,545.804 122.5,550.5C 121.271,551.281 119.938,551.781 118.5,552C 119.167,552.333 119.833,552.667 120.5,553C 120.272,553.399 119.938,553.565 119.5,553.5C 115.583,552.363 111.583,551.53 107.5,551C 104.955,547.41 102.288,543.91 99.5,540.5C 100.242,539.713 101.075,539.047 102,538.5C 103.091,532.903 102.424,527.57 100,522.5C 97.648,520.97 95.4813,519.303 93.5,517.5C 91.5242,515.989 89.1909,515.156 86.5,515C 87.448,514.517 88.448,514.351 89.5,514.5C 90.2631,511.859 90.4298,509.192 90,506.5C 86.6385,502.801 83.6385,498.801 81,494.5C 80.3162,493.216 80.4829,492.049 81.5,491C 80.6721,490.085 79.6721,489.419 78.5,489C 79.4232,486.952 78.9232,485.119 77,483.5C 76.3771,477.543 75.7104,471.877 75,466.5C 73.1006,465.962 70.934,465.295 68.5,464.5C 67.3116,458.956 63.9783,455.456 58.5,454C 54.1667,453.667 49.8333,453.333 45.5,453C 50.0195,452.825 54.3528,452.325 58.5,451.5 Z"/></g>
<g><path style="opacity:1" fill="#163851" d="M 90.5,450.5 C 98.3159,451.492 106.316,451.826 114.5,451.5C 107.104,452.55 99.7702,453.217 92.5,453.5C 91.6236,453.369 90.9569,453.702 90.5,454.5C 93.7043,460.871 97.871,466.538 103,471.5C 103.333,471.167 103.667,470.833 104,470.5C 104.918,472.632 106.251,473.299 108,472.5C 109.64,474.579 110.806,476.912 111.5,479.5C 108.884,480.079 108.884,481.579 111.5,484C 111.018,485.008 110.852,486.175 111,487.5C 108.943,486.022 107.61,484.022 107,481.5C 106.313,483.568 106.48,485.568 107.5,487.5C 109.167,488.5 110.5,489.833 111.5,491.5C 109.59,495.716 108.423,500.05 108,504.5C 109.333,502.5 110.667,500.5 112,498.5C 112.71,499.973 113.876,500.64 115.5,500.5C 119.013,504.895 123.68,506.895 129.5,506.5C 127.936,507.144 125.936,508.144 123.5,509.5C 125.341,510.23 127.175,510.897 129,511.5C 130.268,511.384 131.602,511.051 133,510.5C 140.972,517.695 139.972,520.029 130,517.5C 125.352,519.108 120.519,519.942 115.5,520C 118.191,520.156 120.524,520.989 122.5,522.5C 119.941,522.198 117.607,522.532 115.5,523.5C 114.596,524.209 114.263,525.209 114.5,526.5C 112.517,523.5 109.85,521.166 106.5,519.5C 104.851,515.536 102.684,511.869 100,508.5C 98.7328,506.093 98.2328,503.76 98.5,501.5C 99.1667,500.5 99.8333,499.5 100.5,498.5C 97.6259,494.51 95.2926,490.677 93.5,487C 91.0848,483.224 89.9182,479.057 90,474.5C 85.9199,468.938 82.5865,462.938 80,456.5C 78.3905,455.853 76.8905,455.02 75.5,454C 79.827,453.484 83.827,452.818 87.5,452C 77.8391,451.5 68.1724,451.334 58.5,451.5C 50.8333,451.5 43.1667,451.5 35.5,451.5C 35.5,497.833 35.5,544.167 35.5,590.5C 34.5012,544.003 34.1679,497.336 34.5,450.5C 53.1667,450.5 71.8333,450.5 90.5,450.5 Z"/></g>
<g><path style="opacity:1" fill="#093e51" d="M 92.5,453.5 C 98.7625,457.996 104.762,462.996 110.5,468.5C 117.557,465.291 124.057,466.625 130,472.5C 130.333,472.167 130.667,471.833 131,471.5C 132.5,473 134,474.5 135.5,476C 134.92,477.335 134.587,478.502 134.5,479.5C 121.988,475.588 114.655,480.088 112.5,493C 113.173,495.665 114.173,498.165 115.5,500.5C 113.876,500.64 112.71,499.973 112,498.5C 110.667,500.5 109.333,502.5 108,504.5C 108.423,500.05 109.59,495.716 111.5,491.5C 110.5,489.833 109.167,488.5 107.5,487.5C 106.48,485.568 106.313,483.568 107,481.5C 107.61,484.022 108.943,486.022 111,487.5C 110.852,486.175 111.018,485.008 111.5,484C 108.884,481.579 108.884,480.079 111.5,479.5C 110.806,476.912 109.64,474.579 108,472.5C 106.251,473.299 104.918,472.632 104,470.5C 103.667,470.833 103.333,471.167 103,471.5C 97.871,466.538 93.7043,460.871 90.5,454.5C 90.9569,453.702 91.6236,453.369 92.5,453.5 Z"/></g>
<g><path style="opacity:1" fill="#0a515e" d="M 156.5,451.5 C 162.842,451.334 169.175,451.5 175.5,452C 171.129,452.172 166.796,452.672 162.5,453.5C 163.472,455.636 165.139,456.803 167.5,457C 166.672,457.915 165.672,458.581 164.5,459C 167.036,459.186 169.369,459.686 171.5,460.5C 159.613,460.718 153.947,466.718 154.5,478.5C 153.683,476.031 153.183,473.365 153,470.5C 152.399,472.137 151.899,473.803 151.5,475.5C 152.472,479.382 151.805,479.882 149.5,477C 151.253,472.651 150.42,471.818 147,474.5C 142.361,472.361 138.861,469.028 136.5,464.5C 131.499,461.824 126.166,458.991 120.5,456C 116.082,455.792 111.749,455.126 107.5,454C 112.833,453.333 118.167,453.333 123.5,454C 122.833,454.333 122.167,454.667 121.5,455C 125.812,454.787 129.312,456.287 132,459.5C 132.333,459.167 132.667,458.833 133,458.5C 137.575,463.331 142.575,466.664 148,468.5C 149.882,468.312 151.048,467.312 151.5,465.5C 151.263,462.937 150.763,462.937 150,465.5C 149.239,461.42 147.739,458.42 145.5,456.5C 140.474,455.494 135.474,454.327 130.5,453C 137.822,453.021 145.155,453.354 152.5,454C 150.833,454.333 149.167,454.667 147.5,455C 152.872,454.932 156.372,457.432 158,462.5C 158.14,460.479 158.307,458.645 158.5,457C 156.651,455.907 154.984,454.574 153.5,453C 154.737,452.768 155.737,452.268 156.5,451.5 Z"/></g>
<g><path style="opacity:1" fill="#089797" d="M 205.5,451.5 C 207.833,451.5 210.167,451.5 212.5,451.5C 212.36,453.124 213.027,454.29 214.5,455C 219.882,455.307 225.215,455.974 230.5,457C 231.667,457.5 232.5,458.333 233,459.5C 235.279,458.41 237.446,458.744 239.5,460.5C 240.5,463.167 241.5,465.833 242.5,468.5C 241.443,470.692 240.943,473.358 241,476.5C 241.667,473.833 242.333,473.833 243,476.5C 244.276,473.401 246.11,470.734 248.5,468.5C 248.174,472.884 248.508,477.217 249.5,481.5C 253.833,482.833 258.167,482.833 262.5,481.5C 263.491,477.555 263.824,473.555 263.5,469.5C 264.317,471.969 264.817,474.635 265,477.5C 265.671,473.483 266.004,469.483 266,465.5C 265.086,466.654 264.253,466.487 263.5,465C 263.833,464.667 264.167,464.333 264.5,464C 262.833,463.667 261.167,463.333 259.5,463C 261.715,462.83 263.715,462.163 265.5,461C 261.763,460.001 261.763,458.668 265.5,457C 261.622,455.935 261.622,455.101 265.5,454.5C 269.486,455.11 273.486,455.61 277.5,456C 277.381,457.281 277.881,458.448 279,459.5C 279.333,458.5 279.667,457.5 280,456.5C 280.667,460.167 280.667,463.833 280,467.5C 279.1,468.77 277.934,469.77 276.5,470.5C 279.084,472.091 280.417,474.425 280.5,477.5C 280.095,482.206 279.095,486.706 277.5,491C 277.439,492.711 278.106,494.044 279.5,495C 278.464,496.617 277.297,496.784 276,495.5C 275.594,491.728 274.761,488.061 273.5,484.5C 272.575,483.359 271.741,483.359 271,484.5C 268.763,482.719 266.763,480.719 265,478.5C 264.086,481.075 263.252,483.242 262.5,485C 259.774,485.182 257.107,485.682 254.5,486.5C 257.304,487.105 259.971,487.938 262.5,489C 261.483,490.049 261.316,491.216 262,492.5C 265.75,502.204 270.25,510.87 275.5,518.5C 276.865,519.807 278.198,519.807 279.5,518.5C 279.492,521.545 279.159,524.545 278.5,527.5C 276.408,527.439 274.908,526.439 274,524.5C 273,524.833 272,525.167 271,525.5C 268.797,521.885 265.797,518.219 262,514.5C 260.807,515.978 260.307,517.312 260.5,518.5C 258.851,516.35 257.018,514.35 255,512.5C 254.794,509.637 253.96,507.804 252.5,507C 252.667,506.167 252.833,505.333 253,504.5C 253.914,505.654 254.747,505.487 255.5,504C 253.519,503.395 253.185,502.395 254.5,501C 251.732,495.67 248.898,490.836 246,486.5C 245.641,489.544 244.974,489.878 244,487.5C 241.333,488.833 238.667,488.833 236,487.5C 234.54,489.422 232.873,490.089 231,489.5C 230.667,487.5 230.333,485.5 230,483.5C 228.724,480 226.891,476.833 224.5,474C 227.849,473.911 228.349,472.744 226,470.5C 225.333,469.167 224.667,469.167 224,470.5C 223.208,468.413 222.041,466.579 220.5,465C 217.491,463.496 214.491,461.996 211.5,460.5C 210.699,457.867 209.033,456.033 206.5,455C 206.833,454.667 207.167,454.333 207.5,454C 205.065,453.925 204.398,453.092 205.5,451.5 Z"/></g>
<g><path style="opacity:1" fill="#101f43" d="M 58.5,451.5 C 54.3528,452.325 50.0195,452.825 45.5,453C 49.8333,453.333 54.1667,453.667 58.5,454C 63.9783,455.456 67.3116,458.956 68.5,464.5C 59.1147,463.97 51.1147,460.47 44.5,454C 43.2341,453.691 42.0674,453.191 41,452.5C 41.7461,454.32 43.0794,455.987 45,457.5C 46.5234,461.568 49.1901,464.568 53,466.5C 53.1929,471.75 53.6929,476.917 54.5,482C 53.1007,483.062 52.1007,484.395 51.5,486C 52.2755,493.11 55.2755,499.11 60.5,504C 62.1667,504.833 63.8333,505.667 65.5,506.5C 69.6489,510.584 73.6489,514.751 77.5,519C 76.1667,519.667 75.1667,520.667 74.5,522C 75.0944,522.464 75.7611,522.631 76.5,522.5C 73.8829,528.563 73.8829,534.563 76.5,540.5C 75.0484,542.774 75.715,544.274 78.5,545C 78.1667,545.333 77.8333,545.667 77.5,546C 79.4257,546.124 81.259,546.958 83,548.5C 83.3333,548.167 83.6667,547.833 84,547.5C 84.3114,548.742 83.8114,549.742 82.5,550.5C 83.3202,552.111 84.6536,552.778 86.5,552.5C 86.5883,556.264 87.5883,559.764 89.5,563C 89.1667,563.333 88.8333,563.667 88.5,564C 91.1614,566.661 93.8281,569.328 96.5,572C 96.694,575.877 96.8607,579.71 97,583.5C 97.3333,582.5 97.6667,581.5 98,580.5C 98.2321,581.737 98.7321,582.737 99.5,583.5C 99.3893,584.117 99.056,584.617 98.5,585C 100.5,585.667 102.5,586.333 104.5,587C 105.981,589.762 107.647,592.429 109.5,595C 111.698,595.373 113.865,595.873 116,596.5C 116.772,596.355 117.439,596.022 118,595.5C 118.465,596.931 119.299,598.097 120.5,599C 108.217,600.927 97.5498,598.761 88.5,592.5C 77.656,598.851 66.156,600.184 54,596.5C 53.1667,596.667 52.3333,596.833 51.5,597C 52.6956,597.654 52.6956,598.154 51.5,598.5C 49.8211,596.896 47.8211,596.229 45.5,596.5C 45.5674,597.959 45.2341,599.292 44.5,600.5C 40.1053,598.438 37.1053,595.104 35.5,590.5C 35.5,544.167 35.5,497.833 35.5,451.5C 43.1667,451.5 50.8333,451.5 58.5,451.5 Z"/></g>
<g><path style="opacity:1" fill="#068d8d" d="M 183.5,451.5 C 190.167,451.5 196.833,451.5 203.5,451.5C 198.876,452.015 194.21,453.182 189.5,455C 191.101,455.273 192.601,455.773 194,456.5C 199.61,454.052 203.277,455.718 205,461.5C 206.667,462.833 208.333,464.167 210,465.5C 211.667,465.167 213.333,464.833 215,464.5C 219.634,467.771 222.801,472.105 224.5,477.5C 223.335,478.584 222.002,479.417 220.5,480C 221.337,481.011 221.67,482.178 221.5,483.5C 220.178,483.67 219.011,483.337 218,482.5C 217.283,483.044 216.783,483.711 216.5,484.5C 214.228,483.681 211.894,483.015 209.5,482.5C 208.048,481.698 206.382,481.198 204.5,481C 197.073,472.657 190.24,463.824 184,454.5C 183.517,453.552 183.351,452.552 183.5,451.5 Z"/></g>
<g><path style="opacity:1" fill="#10203f" d="M 367.5,491.5 C 364.906,498.827 364.906,506.161 367.5,513.5C 368.67,520.175 371.67,525.841 376.5,530.5C 375.814,531.848 374.814,533.015 373.5,534C 375.091,536.133 377.091,537.799 379.5,539C 378.236,543.217 379.236,546.884 382.5,550C 382.167,550.333 381.833,550.667 381.5,551C 385.591,551.645 389.591,552.645 393.5,554C 392.167,554.667 392.167,555.333 393.5,556C 391.347,556.099 389.681,556.933 388.5,558.5C 371.889,556.523 359.223,548.523 350.5,534.5C 350.5,534.167 350.5,533.833 350.5,533.5C 354.119,534.406 355.952,532.74 356,528.5C 359.013,525.075 362.513,522.242 366.5,520C 364.129,517.326 362.963,514.159 363,510.5C 362.272,505.467 362.439,500.467 363.5,495.5C 363.333,494.833 363.167,494.167 363,493.5C 362.641,496.544 361.974,496.878 361,494.5C 360.316,495.784 360.483,496.951 361.5,498C 359.957,500.86 358.624,503.86 357.5,507C 357.922,511.768 357.922,516.601 357.5,521.5C 354.932,522.45 352.432,522.45 350,521.5C 349.502,524.817 349.335,528.15 349.5,531.5C 349.167,531.5 348.833,531.5 348.5,531.5C 343.268,520.106 341.268,508.106 342.5,495.5C 343.401,491.263 344.401,486.93 345.5,482.5C 350.537,464.962 361.87,453.462 379.5,448C 396.68,443.624 413.346,444.957 429.5,452C 432.891,453.689 435.891,455.856 438.5,458.5C 435.415,463.672 432.081,468.672 428.5,473.5C 414.181,464.194 399.181,462.694 383.5,469C 374.831,474.163 369.497,481.663 367.5,491.5 Z"/></g>
<g><path style="opacity:1" fill="#0d2544" d="M 68.5,464.5 C 70.934,465.295 73.1006,465.962 75,466.5C 75.7104,471.877 76.3771,477.543 77,483.5C 78.9232,485.119 79.4232,486.952 78.5,489C 79.6721,489.419 80.6721,490.085 81.5,491C 80.4829,492.049 80.3162,493.216 81,494.5C 83.6385,498.801 86.6385,502.801 90,506.5C 90.4298,509.192 90.2631,511.859 89.5,514.5C 88.448,514.351 87.448,514.517 86.5,515C 89.1909,515.156 91.5242,515.989 93.5,517.5C 86.9176,516.376 81.251,518.043 76.5,522.5C 75.7611,522.631 75.0944,522.464 74.5,522C 75.1667,520.667 76.1667,519.667 77.5,519C 73.6489,514.751 69.6489,510.584 65.5,506.5C 63.8333,505.667 62.1667,504.833 60.5,504C 55.2755,499.11 52.2755,493.11 51.5,486C 52.1007,484.395 53.1007,483.062 54.5,482C 53.6929,476.917 53.1929,471.75 53,466.5C 49.1901,464.568 46.5234,461.568 45,457.5C 43.0794,455.987 41.7461,454.32 41,452.5C 42.0674,453.191 43.2341,453.691 44.5,454C 51.1147,460.47 59.1147,463.97 68.5,464.5 Z"/></g>
<g><path style="opacity:1" fill="#eff2f3" d="M 171.5,460.5 C 181.911,464.769 184.745,472.102 180,482.5C 177.805,484.93 175.138,486.597 172,487.5C 170.903,493.135 170.07,498.802 169.5,504.5C 167.796,507.256 166.463,510.256 165.5,513.5C 163.958,514.301 162.292,514.634 160.5,514.5C 160.5,512.167 160.5,509.833 160.5,507.5C 162.934,500.745 163.934,493.745 163.5,486.5C 159.287,485.292 156.287,482.625 154.5,478.5C 153.947,466.718 159.613,460.718 171.5,460.5 Z"/></g>
<g><path style="opacity:1" fill="#0f8083" d="M 908.5,556.5 C 900.826,556.666 893.159,556.5 885.5,556C 886.38,554.644 886.714,553.144 886.5,551.5C 899.877,517.075 913.543,482.742 927.5,448.5C 936.475,447.502 945.475,447.168 954.5,447.5C 969.113,484.017 983.113,520.683 996.5,557.5C 988.167,557.5 979.833,557.5 971.5,557.5C 968.963,549.031 965.963,540.697 962.5,532.5C 947.515,531.501 932.515,531.167 917.5,531.5C 915.305,540.203 912.305,548.537 908.5,556.5 Z"/></g>
<g><path style="opacity:1" fill="#80bcbc" d="M 847.5,447.5 C 855.316,446.508 863.316,446.174 871.5,446.5C 871.832,483.67 871.498,520.67 870.5,557.5C 870.5,557.167 870.5,556.833 870.5,556.5C 870.5,552.5 870.5,548.5 870.5,544.5C 870.5,512.167 870.5,479.833 870.5,447.5C 863.167,447.5 855.833,447.5 848.5,447.5C 848.167,447.5 847.833,447.5 847.5,447.5 Z"/></g>
<g><path style="opacity:1" fill="#0f5e6a" d="M 90.5,450.5 C 120.833,450.5 151.167,450.5 181.5,450.5C 181.842,451.338 182.508,451.672 183.5,451.5C 183.351,452.552 183.517,453.552 184,454.5C 190.24,463.824 197.073,472.657 204.5,481C 206.382,481.198 208.048,481.698 209.5,482.5C 202.908,482.378 198.408,485.378 196,491.5C 195.566,495.548 195.566,499.548 196,503.5C 192.281,506.059 188.448,508.392 184.5,510.5C 183.316,509.312 183.316,508.145 184.5,507C 183.207,506.51 181.873,506.343 180.5,506.5C 178.806,502.63 176.806,498.964 174.5,495.5C 173.759,493.312 173.426,491.312 173.5,489.5C 172.236,491.291 171.569,493.291 171.5,495.5C 172.332,498.482 172.499,501.482 172,504.5C 171.23,503.402 170.397,503.402 169.5,504.5C 170.07,498.802 170.903,493.135 172,487.5C 175.138,486.597 177.805,484.93 180,482.5C 184.745,472.102 181.911,464.769 171.5,460.5C 169.369,459.686 167.036,459.186 164.5,459C 165.672,458.581 166.672,457.915 167.5,457C 165.139,456.803 163.472,455.636 162.5,453.5C 166.796,452.672 171.129,452.172 175.5,452C 169.175,451.5 162.842,451.334 156.5,451.5C 142.5,451.5 128.5,451.5 114.5,451.5C 106.316,451.826 98.3159,451.492 90.5,450.5 Z"/></g>
<g><path style="opacity:1" fill="#c6d8de" d="M 57.5,482.5 C 56.4937,481.604 56.4937,480.938 57.5,480.5C 61.0419,480.813 64.3752,480.479 67.5,479.5C 68.4794,476.375 68.8128,473.042 68.5,469.5C 63.9677,469.818 59.6344,469.485 55.5,468.5C 59.6463,467.353 63.9796,467.186 68.5,468C 70.8348,472.233 71.1681,476.733 69.5,481.5C 65.5546,482.491 61.5546,482.824 57.5,482.5 Z"/></g>
<g><path style="opacity:1" fill="#1a6a74" d="M 165.5,468.5 C 175.228,469.032 176.894,472.865 170.5,480C 164.242,480.702 161.742,477.868 163,471.5C 164.045,470.627 164.878,469.627 165.5,468.5 Z"/></g>
<g><path style="opacity:1" fill="#0a2343" d="M 67.5,479.5 C 64.3752,480.479 61.0419,480.813 57.5,480.5C 56.5863,477.272 56.2529,473.939 56.5,470.5C 60.1667,470.5 63.8333,470.5 67.5,470.5C 67.5,473.5 67.5,476.5 67.5,479.5 Z"/></g>
<g><path style="opacity:1" fill="#86b2ba" d="M 55.5,468.5 C 59.6344,469.485 63.9677,469.818 68.5,469.5C 68.8128,473.042 68.4794,476.375 67.5,479.5C 67.5,476.5 67.5,473.5 67.5,470.5C 63.8333,470.5 60.1667,470.5 56.5,470.5C 56.2529,473.939 56.5863,477.272 57.5,480.5C 56.4937,480.938 56.4937,481.604 57.5,482.5C 56.2502,482.423 55.4169,481.756 55,480.5C 54.1881,476.311 54.3547,472.311 55.5,468.5 Z"/></g>
<g><path style="opacity:1" fill="#bfe3e1" d="M 248.5,468.5 C 253.695,468.179 258.695,468.513 263.5,469.5C 263.824,473.555 263.491,477.555 262.5,481.5C 258.167,482.833 253.833,482.833 249.5,481.5C 248.508,477.217 248.174,472.884 248.5,468.5 Z"/></g>
<g><path style="opacity:1" fill="#0b8b89" d="M 250.5,470.5 C 254.167,470.5 257.833,470.5 261.5,470.5C 261.5,473.833 261.5,477.167 261.5,480.5C 257.833,480.5 254.167,480.5 250.5,480.5C 250.5,477.167 250.5,473.833 250.5,470.5 Z"/></g>
<g><path style="opacity:1" fill="#f0f5f5" d="M 939.5,470.5 C 940.497,470.47 941.164,470.97 941.5,472C 945.798,485.763 950.798,499.263 956.5,512.5C 945.833,513.833 935.167,513.833 924.5,512.5C 929.913,498.591 934.913,484.591 939.5,470.5 Z"/></g>
<g><path style="opacity:1" fill="#132041" d="M 676.5,522.5 C 657.167,522.5 637.833,522.5 618.5,522.5C 618.216,524.415 618.549,526.081 619.5,527.5C 621.737,534.897 626.737,539.397 634.5,541C 646.35,542.863 657.35,540.697 667.5,534.5C 669.13,537.981 670.13,541.648 670.5,545.5C 670.402,547.553 671.069,549.22 672.5,550.5C 668.847,553.66 664.513,555.827 659.5,557C 643.942,561.232 628.942,559.898 614.5,553C 606.416,547.904 600.916,540.737 598,531.5C 595.509,523.61 595.009,515.61 596.5,507.5C 598.025,504.417 599.025,501.084 599.5,497.5C 607.341,481.814 620.174,473.814 638,473.5C 658.793,474.315 671.793,484.648 677,504.5C 677.819,510.681 677.653,516.681 676.5,522.5 Z"/></g>
<g><path style="opacity:1" fill="#0e1f3f" d="M 575.5,488.5 C 575.259,490.898 575.926,492.898 577.5,494.5C 577.833,496.5 578.167,498.5 578.5,500.5C 578.5,519.167 578.5,537.833 578.5,556.5C 571.5,556.5 564.5,556.5 557.5,556.5C 557.83,539.658 557.497,522.992 556.5,506.5C 555.511,498.177 550.844,493.511 542.5,492.5C 532.253,492.765 525.919,497.765 523.5,507.5C 522.504,523.658 522.17,539.991 522.5,556.5C 515.5,556.5 508.5,556.5 501.5,556.5C 501.5,529.833 501.5,503.167 501.5,476.5C 508.451,475.934 515.118,476.601 521.5,478.5C 521.162,481.157 521.829,483.49 523.5,485.5C 536.502,472.401 551.169,470.235 567.5,479C 570.754,481.747 573.42,484.914 575.5,488.5 Z"/></g>
<g><path style="opacity:1" fill="#04767c" d="M 848.5,514.5 C 848.5,512.167 848.5,509.833 848.5,507.5C 849.224,505.782 849.891,503.948 850.5,502C 849.978,501.439 849.645,500.772 849.5,500C 851.049,496.32 851.716,492.487 851.5,488.5C 853.929,488.415 855.929,487.415 857.5,485.5C 858.82,483.349 860.32,481.349 862,479.5C 865.778,484.418 868.278,489.918 869.5,496C 867.43,502.46 864.597,509.96 861,518.5C 860.612,517.572 859.945,516.905 859,516.5C 857.259,518.454 855.092,519.454 852.5,519.5C 852.649,520.552 852.483,521.552 852,522.5C 851.295,519.524 850.129,516.858 848.5,514.5 Z"/></g>
<g><path style="opacity:1" fill="#101f40" d="M 824.5,494.5 C 824.5,496.5 824.5,498.5 824.5,500.5C 824.5,505.833 824.5,511.167 824.5,516.5C 823.026,524.955 822.193,533.622 822,542.5C 821.117,529.277 820.283,516.11 819.5,503C 820.604,501.869 820.271,501.035 818.5,500.5C 816.274,501.088 813.941,501.422 811.5,501.5C 809.817,499.486 807.817,497.82 805.5,496.5C 804.544,497.865 803.878,499.365 803.5,501C 804.149,502.69 804.149,504.523 803.5,506.5C 803.167,506.5 802.833,506.5 802.5,506.5C 802.178,497.511 797.511,492.844 788.5,492.5C 779.152,492.858 773.486,497.525 771.5,506.5C 770.505,519.323 770.171,532.323 770.5,545.5C 768.432,542.051 768.099,538.384 769.5,534.5C 769.522,532.035 769.022,529.702 768,527.5C 767.333,528.833 766.667,528.833 766,527.5C 765.333,530.167 764.667,530.167 764,527.5C 763.252,529.332 762.252,530.999 761,532.5C 760.517,531.552 760.351,530.552 760.5,529.5C 758.09,529.079 756.257,527.746 755,525.5C 754.414,518.596 754.58,511.929 755.5,505.5C 753.385,501.298 750.719,498.298 747.5,496.5C 746.893,496.624 746.56,496.957 746.5,497.5C 735.879,490.16 726.545,491.493 718.5,501.5C 717.262,503.214 716.595,505.214 716.5,507.5C 715.504,523.658 715.17,539.991 715.5,556.5C 708.5,556.5 701.5,556.5 694.5,556.5C 694.5,529.5 694.5,502.5 694.5,475.5C 701.167,475.5 707.833,475.5 714.5,475.5C 714.26,478.579 714.593,481.579 715.5,484.5C 717.345,485.395 718.678,484.728 719.5,482.5C 728.434,474.868 738.768,472.368 750.5,475C 757.714,477.046 763.381,481.213 767.5,487.5C 776.962,476.294 788.962,472.128 803.5,475C 814.649,477.323 821.649,483.823 824.5,494.5 Z"/></g>
<g><path style="opacity:1" fill="#adb3be" d="M 714.5,475.5 C 715.468,477.607 715.802,479.941 715.5,482.5C 716.833,482.5 718.167,482.5 719.5,482.5C 718.678,484.728 717.345,485.395 715.5,484.5C 714.593,481.579 714.26,478.579 714.5,475.5 Z"/></g>
<g><path style="opacity:1" fill="#204d64" d="M 124.5,486.5 C 134.228,487.032 135.894,490.865 129.5,498C 123.814,498.644 120.98,496.144 121,490.5C 121.69,488.65 122.856,487.316 124.5,486.5 Z"/></g>
<g><path style="opacity:1" fill="#838a9c" d="M 345.5,482.5 C 344.401,486.93 343.401,491.263 342.5,495.5C 341.965,490.688 342.965,486.355 345.5,482.5 Z"/></g>
<g><path style="opacity:1" fill="#f5f5f6" d="M 654.5,502.5 C 654.5,504.167 654.5,505.833 654.5,507.5C 642.833,507.5 631.167,507.5 619.5,507.5C 619.5,506.167 619.5,504.833 619.5,503.5C 622.564,495.285 628.564,490.952 637.5,490.5C 642.24,490.932 646.574,492.432 650.5,495C 652.495,497.157 653.828,499.657 654.5,502.5 Z"/></g>
<g><path style="opacity:1" fill="#098e8d" d="M 277.5,574.5 C 274.4,570.644 271.067,566.977 267.5,563.5C 261.183,554.491 254.183,546.158 246.5,538.5C 250.324,527.482 246.658,520.148 235.5,516.5C 235.33,515.178 235.663,514.011 236.5,513C 234.699,512.683 234.366,512.016 235.5,511C 232.674,505.675 228.674,501.508 223.5,498.5C 223.215,496.712 223.548,495.045 224.5,493.5C 225.478,493.977 226.311,494.643 227,495.5C 227.333,494.5 227.667,493.5 228,492.5C 228.333,494.5 228.667,496.5 229,498.5C 230.628,497.903 232.295,498.237 234,499.5C 234.483,498.552 234.649,497.552 234.5,496.5C 237.099,496.549 239.266,497.549 241,499.5C 241.333,498.5 241.667,497.5 242,496.5C 243.985,497.416 245.985,499.083 248,501.5C 250.958,510.652 255.291,517.652 261,522.5C 261.333,522.167 261.667,521.833 262,521.5C 264.904,526.81 268.237,531.81 272,536.5C 273.769,540.36 275.103,544.36 276,548.5C 278.3,550.948 279.633,550.281 280,546.5C 280.807,551.375 280.141,556.042 278,560.5C 275.287,557.892 272.121,557.059 268.5,558C 270.447,560.698 272.781,563.698 275.5,567C 275.031,569.632 275.698,572.132 277.5,574.5 Z"/></g>
<g><path style="opacity:1" fill="#0c193e" d="M 350.5,533.5 C 350.167,532.833 349.833,532.167 349.5,531.5C 349.335,528.15 349.502,524.817 350,521.5C 352.432,522.45 354.932,522.45 357.5,521.5C 357.922,516.601 357.922,511.768 357.5,507C 358.624,503.86 359.957,500.86 361.5,498C 360.483,496.951 360.316,495.784 361,494.5C 361.974,496.878 362.641,496.544 363,493.5C 363.167,494.167 363.333,494.833 363.5,495.5C 362.439,500.467 362.272,505.467 363,510.5C 362.963,514.159 364.129,517.326 366.5,520C 362.513,522.242 359.013,525.075 356,528.5C 355.952,532.74 354.119,534.406 350.5,533.5 Z"/></g>
<g><path style="opacity:1" fill="#575e78" d="M 575.5,488.5 C 577.074,490.102 577.741,492.102 577.5,494.5C 575.926,492.898 575.259,490.898 575.5,488.5 Z"/></g>
<g><path style="opacity:1" fill="#20a09b" d="M 181.5,450.5 C 215.5,450.5 249.5,450.5 283.5,450.5C 283.832,496.336 283.499,542.003 282.5,587.5C 282.5,584.5 282.5,581.5 282.5,578.5C 282.667,556.831 282.5,535.164 282,513.5C 281.667,517.5 281.333,521.5 281,525.5C 280.667,522.167 280.333,518.833 280,515.5C 279.517,516.448 279.351,517.448 279.5,518.5C 278.198,519.807 276.865,519.807 275.5,518.5C 270.25,510.87 265.75,502.204 262,492.5C 261.316,491.216 261.483,490.049 262.5,489C 259.971,487.938 257.304,487.105 254.5,486.5C 257.107,485.682 259.774,485.182 262.5,485C 263.252,483.242 264.086,481.075 265,478.5C 266.763,480.719 268.763,482.719 271,484.5C 271.741,483.359 272.575,483.359 273.5,484.5C 274.761,488.061 275.594,491.728 276,495.5C 277.297,496.784 278.464,496.617 279.5,495C 278.106,494.044 277.439,492.711 277.5,491C 279.095,486.706 280.095,482.206 280.5,477.5C 280.417,474.425 279.084,472.091 276.5,470.5C 277.934,469.77 279.1,468.77 280,467.5C 280.667,463.833 280.667,460.167 280,456.5C 279.667,457.5 279.333,458.5 279,459.5C 277.881,458.448 277.381,457.281 277.5,456C 273.486,455.61 269.486,455.11 265.5,454.5C 261.622,455.101 261.622,455.935 265.5,457C 261.763,458.668 261.763,460.001 265.5,461C 263.715,462.163 261.715,462.83 259.5,463C 261.167,463.333 262.833,463.667 264.5,464C 264.167,464.333 263.833,464.667 263.5,465C 264.253,466.487 265.086,466.654 266,465.5C 266.004,469.483 265.671,473.483 265,477.5C 264.817,474.635 264.317,471.969 263.5,469.5C 258.695,468.513 253.695,468.179 248.5,468.5C 246.11,470.734 244.276,473.401 243,476.5C 242.333,473.833 241.667,473.833 241,476.5C 240.943,473.358 241.443,470.692 242.5,468.5C 241.5,465.833 240.5,463.167 239.5,460.5C 237.446,458.744 235.279,458.41 233,459.5C 232.5,458.333 231.667,457.5 230.5,457C 225.215,455.974 219.882,455.307 214.5,455C 213.027,454.29 212.36,453.124 212.5,451.5C 210.167,451.5 207.833,451.5 205.5,451.5C 204.833,451.5 204.167,451.5 203.5,451.5C 196.833,451.5 190.167,451.5 183.5,451.5C 182.508,451.672 181.842,451.338 181.5,450.5 Z"/></g>
<g><path style="opacity:1" fill="#198388" d="M 206.5,490.5 C 216.228,491.032 217.894,494.865 211.5,502C 202.953,501.29 201.287,497.456 206.5,490.5 Z"/></g>
<g><path style="opacity:1" fill="#a9adb7" d="M 367.5,491.5 C 367.5,498.833 367.5,506.167 367.5,513.5C 364.906,506.161 364.906,498.827 367.5,491.5 Z"/></g>
<g><path style="opacity:1" fill="#111f43" d="M 824.5,516.5 C 824.5,529.833 824.5,543.167 824.5,556.5C 817.5,556.5 810.5,556.5 803.5,556.5C 803.5,539.833 803.5,523.167 803.5,506.5C 804.149,504.523 804.149,502.69 803.5,501C 803.878,499.365 804.544,497.865 805.5,496.5C 807.817,497.82 809.817,499.486 811.5,501.5C 813.941,501.422 816.274,501.088 818.5,500.5C 820.271,501.035 820.604,501.869 819.5,503C 820.283,516.11 821.117,529.277 822,542.5C 822.193,533.622 823.026,524.955 824.5,516.5 Z"/></g>
<g><path style="opacity:1" fill="#5e657b" d="M 599.5,497.5 C 599.025,501.084 598.025,504.417 596.5,507.5C 596.32,503.714 597.32,500.381 599.5,497.5 Z"/></g>
<g><path style="opacity:1" fill="#115060" d="M 184.5,510.5 C 177.714,515.45 170.548,519.783 163,523.5C 162.235,523.43 161.735,523.097 161.5,522.5C 163.158,519.672 164.492,516.672 165.5,513.5C 166.463,510.256 167.796,507.256 169.5,504.5C 170.397,503.402 171.23,503.402 172,504.5C 172.499,501.482 172.332,498.482 171.5,495.5C 171.569,493.291 172.236,491.291 173.5,489.5C 173.426,491.312 173.759,493.312 174.5,495.5C 176.806,498.964 178.806,502.63 180.5,506.5C 181.873,506.343 183.207,506.51 184.5,507C 183.316,508.145 183.316,509.312 184.5,510.5 Z"/></g>
<g><path style="opacity:1" fill="#c0c6cf" d="M 654.5,502.5 C 655.461,504.265 655.795,506.265 655.5,508.5C 643.167,508.5 630.833,508.5 618.5,508.5C 618.216,506.585 618.549,504.919 619.5,503.5C 619.5,504.833 619.5,506.167 619.5,507.5C 631.167,507.5 642.833,507.5 654.5,507.5C 654.5,505.833 654.5,504.167 654.5,502.5 Z"/></g>
<g><path style="opacity:1" fill="#12757e" d="M 223.5,498.5 C 228.674,501.508 232.674,505.675 235.5,511C 234.366,512.016 234.699,512.683 236.5,513C 235.663,514.011 235.33,515.178 235.5,516.5C 232.303,516.405 229.303,517.072 226.5,518.5C 224.203,515.672 221.869,512.839 219.5,510C 217.08,509.313 214.913,509.813 213,511.5C 211.378,510.901 209.878,510.234 208.5,509.5C 215.031,509.906 219.698,507.239 222.5,501.5C 223.404,500.791 223.737,499.791 223.5,498.5 Z"/></g>
<g><path style="opacity:1" fill="#565e79" d="M 578.5,500.5 C 579.497,519.326 579.83,538.326 579.5,557.5C 571.833,557.5 564.167,557.5 556.5,557.5C 556.5,540.5 556.5,523.5 556.5,506.5C 557.497,522.992 557.83,539.658 557.5,556.5C 564.5,556.5 571.5,556.5 578.5,556.5C 578.5,537.833 578.5,519.167 578.5,500.5 Z"/></g>
<g><path style="opacity:1" fill="#0f394d" d="M 129.5,506.5 C 130.601,505.402 131.934,505.235 133.5,506C 140.059,513.725 147.059,520.891 154.5,527.5C 154.5,527.833 154.5,528.167 154.5,528.5C 153.728,532.75 153.228,537.083 153,541.5C 151.246,539.75 149.079,539.083 146.5,539.5C 146.81,542.713 146.477,545.713 145.5,548.5C 145.5,545.833 145.5,543.167 145.5,540.5C 141.187,541.01 137.187,540.343 133.5,538.5C 132.04,536.578 130.373,535.911 128.5,536.5C 129.167,536.5 129.5,536.167 129.5,535.5C 130.485,531.366 130.818,527.032 130.5,522.5C 127.833,522.5 125.167,522.5 122.5,522.5C 120.524,520.989 118.191,520.156 115.5,520C 120.519,519.942 125.352,519.108 130,517.5C 139.972,520.029 140.972,517.695 133,510.5C 131.602,511.051 130.268,511.384 129,511.5C 127.175,510.897 125.341,510.23 123.5,509.5C 125.936,508.144 127.936,507.144 129.5,506.5 Z"/></g>
<g><path style="opacity:1" fill="#09515f" d="M 208.5,509.5 C 209.878,510.234 211.378,510.901 213,511.5C 214.913,509.813 217.08,509.313 219.5,510C 221.869,512.839 224.203,515.672 226.5,518.5C 224.164,520.004 222.331,522.004 221,524.5C 220.468,528.909 220.468,533.243 221,537.5C 214.06,541.052 207.227,544.719 200.5,548.5C 198.432,548.782 196.432,547.949 194.5,546C 195.345,544.442 194.679,543.442 192.5,543C 193.641,542.259 193.641,541.425 192.5,540.5C 190.604,539.534 188.604,539.201 186.5,539.5C 186.5,539.167 186.5,538.833 186.5,538.5C 191.537,538.587 196.537,538.254 201.5,537.5C 201.5,535.833 201.5,534.167 201.5,532.5C 196.518,533.053 191.518,533.387 186.5,533.5C 185.4,532.442 184.066,531.608 182.5,531C 183.872,530.598 185.205,530.098 186.5,529.5C 188.098,530.485 189.765,530.651 191.5,530C 187.84,529.005 184.674,527.171 182,524.5C 180.274,526.098 179.441,525.765 179.5,523.5C 186.597,518.442 193.93,513.608 201.5,509C 203.847,508.666 206.181,508.833 208.5,509.5 Z"/></g>
<g><path style="opacity:1" fill="#467b8a" d="M 160.5,507.5 C 160.5,509.833 160.5,512.167 160.5,514.5C 162.292,514.634 163.958,514.301 165.5,513.5C 164.492,516.672 163.158,519.672 161.5,522.5C 159.326,522.25 157.659,521.25 156.5,519.5C 157.586,519.38 158.253,518.713 158.5,517.5C 159.011,513.998 159.678,510.665 160.5,507.5 Z"/></g>
<g><path style="opacity:1" fill="#0a948e" d="M 203.5,451.5 C 204.167,451.5 204.833,451.5 205.5,451.5C 204.398,453.092 205.065,453.925 207.5,454C 207.167,454.333 206.833,454.667 206.5,455C 209.033,456.033 210.699,457.867 211.5,460.5C 214.491,461.996 217.491,463.496 220.5,465C 222.041,466.579 223.208,468.413 224,470.5C 224.667,469.167 225.333,469.167 226,470.5C 228.349,472.744 227.849,473.911 224.5,474C 226.891,476.833 228.724,480 230,483.5C 230.333,485.5 230.667,487.5 231,489.5C 232.873,490.089 234.54,489.422 236,487.5C 238.667,488.833 241.333,488.833 244,487.5C 244.974,489.878 245.641,489.544 246,486.5C 248.898,490.836 251.732,495.67 254.5,501C 253.185,502.395 253.519,503.395 255.5,504C 254.747,505.487 253.914,505.654 253,504.5C 252.833,505.333 252.667,506.167 252.5,507C 253.96,507.804 254.794,509.637 255,512.5C 257.018,514.35 258.851,516.35 260.5,518.5C 260.307,517.312 260.807,515.978 262,514.5C 265.797,518.219 268.797,521.885 271,525.5C 272,525.167 273,524.833 274,524.5C 274.908,526.439 276.408,527.439 278.5,527.5C 279.159,524.545 279.492,521.545 279.5,518.5C 279.351,517.448 279.517,516.448 280,515.5C 280.333,518.833 280.667,522.167 281,525.5C 281.333,521.5 281.667,517.5 282,513.5C 282.5,535.164 282.667,556.831 282.5,578.5C 280.019,578.226 278.353,576.893 277.5,574.5C 275.698,572.132 275.031,569.632 275.5,567C 272.781,563.698 270.447,560.698 268.5,558C 272.121,557.059 275.287,557.892 278,560.5C 280.141,556.042 280.807,551.375 280,546.5C 279.633,550.281 278.3,550.948 276,548.5C 275.103,544.36 273.769,540.36 272,536.5C 268.237,531.81 264.904,526.81 262,521.5C 261.667,521.833 261.333,522.167 261,522.5C 255.291,517.652 250.958,510.652 248,501.5C 245.985,499.083 243.985,497.416 242,496.5C 241.667,497.5 241.333,498.5 241,499.5C 239.266,497.549 237.099,496.549 234.5,496.5C 234.649,497.552 234.483,498.552 234,499.5C 232.295,498.237 230.628,497.903 229,498.5C 228.667,496.5 228.333,494.5 228,492.5C 227.667,493.5 227.333,494.5 227,495.5C 226.311,494.643 225.478,493.977 224.5,493.5C 223.548,495.045 223.215,496.712 223.5,498.5C 223.737,499.791 223.404,500.791 222.5,501.5C 223.933,494.395 221.933,488.728 216.5,484.5C 216.783,483.711 217.283,483.044 218,482.5C 219.011,483.337 220.178,483.67 221.5,483.5C 221.67,482.178 221.337,481.011 220.5,480C 222.002,479.417 223.335,478.584 224.5,477.5C 222.801,472.105 219.634,467.771 215,464.5C 213.333,464.833 211.667,465.167 210,465.5C 208.333,464.167 206.667,462.833 205,461.5C 203.277,455.718 199.61,454.052 194,456.5C 192.601,455.773 191.101,455.273 189.5,455C 194.21,453.182 198.876,452.015 203.5,451.5 Z"/></g>
<g><path style="opacity:1" fill="#4d5972" d="M 676.5,522.5 C 657.674,523.497 638.674,523.83 619.5,523.5C 619.5,524.833 619.5,526.167 619.5,527.5C 618.549,526.081 618.216,524.415 618.5,522.5C 637.833,522.5 657.167,522.5 676.5,522.5 Z"/></g>
<g><path style="opacity:1" fill="#434b68" d="M 521.5,478.5 C 515.118,476.601 508.451,475.934 501.5,476.5C 501.5,503.167 501.5,529.833 501.5,556.5C 501.167,556.5 500.833,556.5 500.5,556.5C 500.5,529.5 500.5,502.5 500.5,475.5C 507.5,475.5 514.5,475.5 521.5,475.5C 521.5,476.5 521.5,477.5 521.5,478.5 Z"/></g>
<g><path style="opacity:1" fill="#101e43" d="M 770.5,545.5 C 770.5,549.167 770.5,552.833 770.5,556.5C 763.5,556.5 756.5,556.5 749.5,556.5C 749.83,539.325 749.497,522.325 748.5,505.5C 748.037,502.779 747.371,500.112 746.5,497.5C 746.56,496.957 746.893,496.624 747.5,496.5C 750.719,498.298 753.385,501.298 755.5,505.5C 754.58,511.929 754.414,518.596 755,525.5C 756.257,527.746 758.09,529.079 760.5,529.5C 760.351,530.552 760.517,531.552 761,532.5C 762.252,530.999 763.252,529.332 764,527.5C 764.667,530.167 765.333,530.167 766,527.5C 766.667,528.833 767.333,528.833 768,527.5C 769.022,529.702 769.522,532.035 769.5,534.5C 768.099,538.384 768.432,542.051 770.5,545.5 Z"/></g>
<g><path style="opacity:1" fill="#0d1f3e" d="M 56.5,565.5 C 56.5,565.833 56.5,566.167 56.5,566.5C 55.5151,570.634 55.1818,574.968 55.5,579.5C 54.5041,579.586 53.6708,579.252 53,578.5C 52.6667,579.167 52.3333,579.833 52,580.5C 51.4169,578.998 50.5836,577.665 49.5,576.5C 47.1563,576.317 44.8229,575.317 42.5,573.5C 41.2968,568.044 40.2968,562.544 39.5,557C 40.9525,553.081 42.9525,549.581 45.5,546.5C 43.8386,540.113 42.8386,533.779 42.5,527.5C 43.0983,526.205 43.5983,524.872 44,523.5C 45.8754,522.791 48.0421,522.791 50.5,523.5C 52.4545,526.99 53.9545,530.656 55,534.5C 55.3333,534.167 55.6667,533.833 56,533.5C 57.7929,537.546 59.9595,541.379 62.5,545C 60.6789,546.743 58.6789,548.243 56.5,549.5C 57.9549,551.22 58.7883,553.22 59,555.5C 60.1711,556.893 61.6711,557.727 63.5,558C 62.5,558.333 61.5,558.667 60.5,559C 63.6685,559.109 66.3351,560.275 68.5,562.5C 63.7541,563.344 59.7541,564.344 56.5,565.5 Z"/></g>
<g><path style="opacity:1" fill="#1e3856" d="M 85.5,525.5 C 93.7443,525.228 96.0776,528.728 92.5,536C 85.2434,538.746 82.0768,536.246 83,528.5C 84.045,527.627 84.8783,526.627 85.5,525.5 Z"/></g>
<g><path style="opacity:1" fill="#1d7c82" d="M 231.5,524.5 C 237.17,524.339 240.003,527.006 240,532.5C 236.306,537.342 232.306,537.675 228,533.5C 226.665,529.392 227.832,526.392 231.5,524.5 Z"/></g>
<g><path style="opacity:1" fill="#5c647a" d="M 824.5,500.5 C 825.497,519.326 825.83,538.326 825.5,557.5C 817.833,557.5 810.167,557.5 802.5,557.5C 802.5,540.5 802.5,523.5 802.5,506.5C 802.833,506.5 803.167,506.5 803.5,506.5C 803.5,523.167 803.5,539.833 803.5,556.5C 810.5,556.5 817.5,556.5 824.5,556.5C 824.5,543.167 824.5,529.833 824.5,516.5C 824.5,511.167 824.5,505.833 824.5,500.5 Z"/></g>
<g><path style="opacity:1" fill="#c0c5cc" d="M 824.5,494.5 C 825.302,495.952 825.802,497.618 826,499.5C 826.829,519.004 826.662,538.338 825.5,557.5C 825.83,538.326 825.497,519.326 824.5,500.5C 824.5,498.5 824.5,496.5 824.5,494.5 Z"/></g>
<g><path style="opacity:1" fill="#0e3f53" d="M 179.5,523.5 C 179.441,525.765 180.274,526.098 182,524.5C 184.674,527.171 187.84,529.005 191.5,530C 189.765,530.651 188.098,530.485 186.5,529.5C 185.205,530.098 183.872,530.598 182.5,531C 184.066,531.608 185.4,532.442 186.5,533.5C 183.369,532.908 181.036,533.908 179.5,536.5C 178.596,537.209 178.263,538.209 178.5,539.5C 181.167,539.5 183.833,539.5 186.5,539.5C 188.604,539.201 190.604,539.534 192.5,540.5C 193.641,541.425 193.641,542.259 192.5,543C 194.679,543.442 195.345,544.442 194.5,546C 196.432,547.949 198.432,548.782 200.5,548.5C 191.279,553.695 182.112,559.029 173,564.5C 172.5,577.162 172.333,589.829 172.5,602.5C 169.5,602.5 166.5,602.5 163.5,602.5C 163.5,579.833 163.5,557.167 163.5,534.5C 168.278,530.06 173.612,526.393 179.5,523.5 Z"/></g>
<g><path style="opacity:1" fill="#04767c" d="M 870.5,544.5 C 870.5,548.5 870.5,552.5 870.5,556.5C 863.167,556.5 855.833,556.5 848.5,556.5C 848.5,551.833 848.5,547.167 848.5,542.5C 850.384,540.231 851.717,537.564 852.5,534.5C 855.74,536.451 858.74,535.784 861.5,532.5C 863.949,534.776 865.782,537.442 867,540.5C 867.333,539.833 867.667,539.167 868,538.5C 868.037,540.974 868.87,542.974 870.5,544.5 Z"/></g>
<g><path style="opacity:1" fill="#edf1f2" d="M 186.5,538.5 C 183.612,539.01 181.279,538.344 179.5,536.5C 181.036,533.908 183.369,532.908 186.5,533.5C 191.518,533.387 196.518,533.053 201.5,532.5C 201.5,534.167 201.5,535.833 201.5,537.5C 196.537,538.254 191.537,538.587 186.5,538.5 Z"/></g>
<g><path style="opacity:1" fill="#828a9d" d="M 348.5,531.5 C 348.833,531.5 349.167,531.5 349.5,531.5C 349.833,532.167 350.167,532.833 350.5,533.5C 350.5,533.833 350.5,534.167 350.5,534.5C 349.094,534.027 348.427,533.027 348.5,531.5 Z"/></g>
<g><path style="opacity:1" fill="#121f42" d="M 376.5,530.5 C 388.507,539.916 401.84,542.082 416.5,537C 421.112,535.361 425.446,533.194 429.5,530.5C 433.461,535.756 436.295,541.422 438,547.5C 426.073,555.918 412.74,559.918 398,559.5C 394.749,559.458 391.583,559.125 388.5,558.5C 389.681,556.933 391.347,556.099 393.5,556C 392.167,555.333 392.167,554.667 393.5,554C 389.591,552.645 385.591,551.645 381.5,551C 381.833,550.667 382.167,550.333 382.5,550C 379.236,546.884 378.236,543.217 379.5,539C 377.091,537.799 375.091,536.133 373.5,534C 374.814,533.015 375.814,531.848 376.5,530.5 Z"/></g>
<g><path style="opacity:1" fill="#98a8b2" d="M 122.5,522.5 C 125.167,522.5 127.833,522.5 130.5,522.5C 130.818,527.032 130.485,531.366 129.5,535.5C 124.5,535.5 119.5,535.5 114.5,535.5C 114.5,532.5 114.5,529.5 114.5,526.5C 114.263,525.209 114.596,524.209 115.5,523.5C 117.607,522.532 119.941,522.198 122.5,522.5 Z"/></g>
<g><path style="opacity:1" fill="#f5f8f8" d="M 115.5,523.5 C 120.167,523.5 124.833,523.5 129.5,523.5C 129.5,527.167 129.5,530.833 129.5,534.5C 124.833,534.5 120.167,534.5 115.5,534.5C 115.5,530.833 115.5,527.167 115.5,523.5 Z"/></g>
<g><path style="opacity:1" fill="#777e91" d="M 523.5,507.5 C 523.5,524.167 523.5,540.833 523.5,557.5C 515.648,557.825 507.982,557.492 500.5,556.5C 500.833,556.5 501.167,556.5 501.5,556.5C 508.5,556.5 515.5,556.5 522.5,556.5C 522.17,539.991 522.504,523.658 523.5,507.5 Z"/></g>
<g><path style="opacity:1" fill="#656f86" d="M 748.5,505.5 C 749.497,522.325 749.83,539.325 749.5,556.5C 756.5,556.5 763.5,556.5 770.5,556.5C 770.5,552.833 770.5,549.167 770.5,545.5C 770.171,532.323 770.505,519.323 771.5,506.5C 771.5,523.5 771.5,540.5 771.5,557.5C 763.833,557.5 756.167,557.5 748.5,557.5C 748.5,540.167 748.5,522.833 748.5,505.5 Z"/></g>
<g><path style="opacity:1" fill="#7aa7af" d="M 179.5,536.5 C 181.279,538.344 183.612,539.01 186.5,538.5C 186.5,538.833 186.5,539.167 186.5,539.5C 183.833,539.5 181.167,539.5 178.5,539.5C 178.263,538.209 178.596,537.209 179.5,536.5 Z"/></g>
<g><path style="opacity:1" fill="#0f304a" d="M 154.5,528.5 C 155.498,552.994 155.831,577.661 155.5,602.5C 152.833,602.5 150.167,602.5 147.5,602.5C 147.828,590.322 147.495,578.322 146.5,566.5C 137.622,561.894 128.622,557.561 119.5,553.5C 119.938,553.565 120.272,553.399 120.5,553C 119.833,552.667 119.167,552.333 118.5,552C 119.938,551.781 121.271,551.281 122.5,550.5C 121.397,545.804 119.397,541.304 116.5,537C 120.486,536.501 124.486,536.334 128.5,536.5C 130.373,535.911 132.04,536.578 133.5,538.5C 131.193,539.405 131.193,540.738 133.5,542.5C 136.856,545.872 140.856,547.872 145.5,548.5C 146.477,545.713 146.81,542.713 146.5,539.5C 149.079,539.083 151.246,539.75 153,541.5C 153.228,537.083 153.728,532.75 154.5,528.5 Z"/></g>
<g><path style="opacity:1" fill="#697186" d="M 694.5,475.5 C 694.5,502.5 694.5,529.5 694.5,556.5C 701.5,556.5 708.5,556.5 715.5,556.5C 715.17,539.991 715.504,523.658 716.5,507.5C 716.5,524.167 716.5,540.833 716.5,557.5C 708.833,557.5 701.167,557.5 693.5,557.5C 693.169,529.995 693.502,502.662 694.5,475.5 Z"/></g>
<g><path style="opacity:1" fill="#d6e2e4" d="M 133.5,538.5 C 137.187,540.343 141.187,541.01 145.5,540.5C 145.5,543.167 145.5,545.833 145.5,548.5C 140.856,547.872 136.856,545.872 133.5,542.5C 131.193,540.738 131.193,539.405 133.5,538.5 Z"/></g>
<g><path style="opacity:1" fill="#085260" d="M 246.5,538.5 C 254.183,546.158 261.183,554.491 267.5,563.5C 267.631,564.239 267.464,564.906 267,565.5C 265.981,564.313 264.814,563.313 263.5,562.5C 260.591,565.106 257.591,566.773 254.5,567.5C 254.167,567.5 253.833,567.5 253.5,567.5C 249.5,567.5 245.5,567.5 241.5,567.5C 240.686,569.631 240.186,571.964 240,574.5C 239.163,568.163 238.497,568.497 238,575.5C 237.667,575.167 237.333,574.833 237,574.5C 236.667,575.5 236.333,576.5 236,577.5C 235.346,576.304 234.846,576.304 234.5,577.5C 235.833,580.833 238.167,583.167 241.5,584.5C 242.325,588.122 242.825,591.789 243,595.5C 243.785,597.286 244.951,598.786 246.5,600C 244.292,600.191 242.292,600.691 240.5,601.5C 236.818,601.665 233.152,601.499 229.5,601C 230.938,600.781 232.271,600.281 233.5,599.5C 231.541,597.446 230.041,595.113 229,592.5C 228.316,591.216 228.483,590.049 229.5,589C 227.68,587.195 226.514,585.028 226,582.5C 225.667,582.833 225.333,583.167 225,583.5C 221.963,580.382 221.797,577.049 224.5,573.5C 222.951,570.755 221.118,568.421 219,566.5C 218.667,565.5 218.333,564.5 218,563.5C 217.667,563.833 217.333,564.167 217,564.5C 216.667,563.5 216.333,562.5 216,561.5C 215.667,561.833 215.333,562.167 215,562.5C 214.626,561.584 214.126,560.75 213.5,560C 210.039,559.177 207.039,557.677 204.5,555.5C 211.942,550.941 219.609,546.608 227.5,542.5C 234.904,546.063 241.237,544.73 246.5,538.5 Z"/></g>
<g><path style="opacity:1" fill="#102745" d="M 76.5,540.5 C 78.0103,541.836 79.6769,543.003 81.5,544C 85.5,544.333 89.5,544.667 93.5,545C 96.781,548.441 99.4476,552.274 101.5,556.5C 103.777,557.421 106.11,558.087 108.5,558.5C 107.048,559.302 105.382,559.802 103.5,560C 106.049,560.751 107.716,562.418 108.5,565C 107.833,565.333 107.167,565.667 106.5,566C 107.144,568.822 108.144,571.822 109.5,575C 108.5,576 107.5,577 106.5,578C 110.5,578.333 114.5,578.667 118.5,579C 111.987,579.172 105.653,579.672 99.5,580.5C 99.5,581.5 99.5,582.5 99.5,583.5C 98.7321,582.737 98.2321,581.737 98,580.5C 97.6667,581.5 97.3333,582.5 97,583.5C 96.8607,579.71 96.694,575.877 96.5,572C 93.8281,569.328 91.1614,566.661 88.5,564C 88.8333,563.667 89.1667,563.333 89.5,563C 87.5883,559.764 86.5883,556.264 86.5,552.5C 84.6536,552.778 83.3202,552.111 82.5,550.5C 83.8114,549.742 84.3114,548.742 84,547.5C 83.6667,547.833 83.3333,548.167 83,548.5C 81.259,546.958 79.4257,546.124 77.5,546C 77.8333,545.667 78.1667,545.333 78.5,545C 75.715,544.274 75.0484,542.774 76.5,540.5 Z"/></g>
<g><path style="opacity:1" fill="#60677a" d="M 456.5,475.5 C 456.5,502.5 456.5,529.5 456.5,556.5C 463.5,556.5 470.5,556.5 477.5,556.5C 477.5,529.5 477.5,502.5 477.5,475.5C 478.498,502.662 478.831,529.995 478.5,557.5C 470.833,557.5 463.167,557.5 455.5,557.5C 455.169,529.995 455.502,502.662 456.5,475.5 Z"/></g>
<g><path style="opacity:1" fill="#111e3e" d="M 456.5,475.5 C 463.5,475.5 470.5,475.5 477.5,475.5C 477.5,502.5 477.5,529.5 477.5,556.5C 470.5,556.5 463.5,556.5 456.5,556.5C 456.5,529.5 456.5,502.5 456.5,475.5 Z"/></g>
<g><path style="opacity:1" fill="#cbced5" d="M 718.5,501.5 C 717.884,520.314 717.218,538.981 716.5,557.5C 716.5,540.833 716.5,524.167 716.5,507.5C 716.595,505.214 717.262,503.214 718.5,501.5 Z"/></g>
<g><path style="opacity:1" fill="#82889b" d="M 670.5,545.5 C 671.931,546.78 672.598,548.447 672.5,550.5C 671.069,549.22 670.402,547.553 670.5,545.5 Z"/></g>
<g><path style="opacity:1" fill="#8d9ba6" d="M 154.5,528.5 C 154.5,528.167 154.5,527.833 154.5,527.5C 156.491,552.478 157.157,577.811 156.5,603.5C 153.167,603.5 149.833,603.5 146.5,603.5C 146.5,591.167 146.5,578.833 146.5,566.5C 147.495,578.322 147.828,590.322 147.5,602.5C 150.167,602.5 152.833,602.5 155.5,602.5C 155.831,577.661 155.498,552.994 154.5,528.5 Z"/></g>
<g><path style="opacity:1" fill="#5ba8af" d="M 886.5,551.5 C 886.714,553.144 886.38,554.644 885.5,556C 893.159,556.5 900.826,556.666 908.5,556.5C 900.684,557.492 892.684,557.826 884.5,557.5C 884.259,555.102 884.926,553.102 886.5,551.5 Z"/></g>
<g><path style="opacity:1" fill="#c7cfd4" d="M 163.5,534.5 C 163.5,557.167 163.5,579.833 163.5,602.5C 166.5,602.5 169.5,602.5 172.5,602.5C 169.375,603.479 166.042,603.813 162.5,603.5C 162.169,580.327 162.502,557.327 163.5,534.5 Z"/></g>
<g><path style="opacity:1" fill="#09485a" d="M 204.5,555.5 C 207.039,557.677 210.039,559.177 213.5,560C 214.126,560.75 214.626,561.584 215,562.5C 215.333,562.167 215.667,561.833 216,561.5C 216.333,562.5 216.667,563.5 217,564.5C 217.333,564.167 217.667,563.833 218,563.5C 218.333,564.5 218.667,565.5 219,566.5C 221.118,568.421 222.951,570.755 224.5,573.5C 221.797,577.049 221.963,580.382 225,583.5C 225.333,583.167 225.667,582.833 226,582.5C 226.514,585.028 227.68,587.195 229.5,589C 228.483,590.049 228.316,591.216 229,592.5C 230.041,595.113 231.541,597.446 233.5,599.5C 232.271,600.281 230.938,600.781 229.5,601C 233.152,601.499 236.818,601.665 240.5,601.5C 247.354,601.176 254.021,601.509 260.5,602.5C 247.833,602.5 235.167,602.5 222.5,602.5C 215.679,601.671 208.679,601.171 201.5,601C 203.833,600.667 206.167,600.333 208.5,600C 204.256,597.704 200.756,594.537 198,590.5C 194.685,591.227 191.185,591.394 187.5,591C 186.299,591.903 185.465,593.069 185,594.5C 184.667,594.167 184.333,593.833 184,593.5C 183.667,594.5 183.333,595.5 183,596.5C 182.333,591.833 182.333,587.167 183,582.5C 183.667,581.833 184.333,581.167 185,580.5C 186.903,580.694 188.737,580.694 190.5,580.5C 191.251,581.376 191.751,582.376 192,583.5C 192.232,582.263 192.732,581.263 193.5,580.5C 193.082,579.778 192.416,579.278 191.5,579C 192.059,578.275 192.392,577.442 192.5,576.5C 191.565,573.529 190.732,570.529 190,567.5C 188.286,567.795 186.453,567.462 184.5,566.5C 191.159,562.837 197.826,559.17 204.5,555.5 Z"/></g>
<g><path style="opacity:1" fill="#102d4a" d="M 108.5,558.5 C 118.69,561.925 128.69,565.925 138.5,570.5C 139.498,578.472 139.831,586.472 139.5,594.5C 138.683,592.031 138.183,589.365 138,586.5C 137.667,588.5 137.333,590.5 137,592.5C 136.517,591.552 136.351,590.552 136.5,589.5C 134.063,589.756 131.729,590.423 129.5,591.5C 128.066,590.064 126.9,588.398 126,586.5C 125.275,587.059 124.442,587.392 123.5,587.5C 120.194,586.837 116.861,586.337 113.5,586C 118.167,585.667 122.833,585.333 127.5,585C 119.323,584.829 111.323,584.329 103.5,583.5C 111.167,583.5 118.833,583.5 126.5,583.5C 126.5,582.5 126.5,581.5 126.5,580.5C 117.5,580.5 108.5,580.5 99.5,580.5C 105.653,579.672 111.987,579.172 118.5,579C 114.5,578.667 110.5,578.333 106.5,578C 107.5,577 108.5,576 109.5,575C 108.144,571.822 107.144,568.822 106.5,566C 107.167,565.667 107.833,565.333 108.5,565C 107.716,562.418 106.049,560.751 103.5,560C 105.382,559.802 107.048,559.302 108.5,558.5 Z"/></g>
<g><path style="opacity:1" fill="#d5dde2" d="M 56.5,565.5 C 61.43,565.197 66.2633,565.531 71,566.5C 71.4993,571.489 71.6659,576.489 71.5,581.5C 70.5,581.5 69.5,581.5 68.5,581.5C 65.1501,581.665 61.8168,581.498 58.5,581C 57.944,580.617 57.6107,580.117 57.5,579.5C 61.3714,579.815 65.0381,579.482 68.5,578.5C 68.5,575.167 68.5,571.833 68.5,568.5C 65.1667,568.5 61.8333,568.5 58.5,568.5C 57.5489,569.919 57.2155,571.585 57.5,573.5C 56.5318,571.393 56.1984,569.059 56.5,566.5C 56.5,566.167 56.5,565.833 56.5,565.5 Z"/></g>
<g><path style="opacity:1" fill="#335067" d="M 58.5,568.5 C 61.8333,568.5 65.1667,568.5 68.5,568.5C 68.5,571.833 68.5,575.167 68.5,578.5C 68.1667,578.5 67.8333,578.5 67.5,578.5C 67.5,575.5 67.5,572.5 67.5,569.5C 64.8333,569.5 62.1667,569.5 59.5,569.5C 59.7947,571.735 59.4614,573.735 58.5,575.5C 58.5,573.167 58.5,570.833 58.5,568.5 Z"/></g>
<g><path style="opacity:1" fill="#085865" d="M 267.5,563.5 C 271.067,566.977 274.4,570.644 277.5,574.5C 278.353,576.893 280.019,578.226 282.5,578.5C 282.5,581.5 282.5,584.5 282.5,587.5C 281.257,595.742 276.59,600.742 268.5,602.5C 265.833,602.5 263.167,602.5 260.5,602.5C 254.021,601.509 247.354,601.176 240.5,601.5C 242.292,600.691 244.292,600.191 246.5,600C 244.951,598.786 243.785,597.286 243,595.5C 242.825,591.789 242.325,588.122 241.5,584.5C 238.167,583.167 235.833,580.833 234.5,577.5C 234.846,576.304 235.346,576.304 236,577.5C 236.333,576.5 236.667,575.5 237,574.5C 237.333,574.833 237.667,575.167 238,575.5C 238.497,568.497 239.163,568.163 240,574.5C 240.186,571.964 240.686,569.631 241.5,567.5C 241.334,571.514 241.501,575.514 242,579.5C 242.995,580.066 243.828,580.733 244.5,581.5C 256.468,583.5 259.802,578.834 254.5,567.5C 257.591,566.773 260.591,565.106 263.5,562.5C 264.814,563.313 265.981,564.313 267,565.5C 267.464,564.906 267.631,564.239 267.5,563.5 Z"/></g>
<g><path style="opacity:1" fill="#09515b" d="M 243.5,569.5 C 246.833,569.5 250.167,569.5 253.5,569.5C 253.665,572.518 253.498,575.518 253,578.5C 250.619,579.435 248.119,579.768 245.5,579.5C 244.883,579.389 244.383,579.056 244,578.5C 243.502,575.518 243.335,572.518 243.5,569.5 Z"/></g>
<g><path style="opacity:1" fill="#05203e" d="M 67.5,578.5 C 64.5,578.5 61.5,578.5 58.5,578.5C 58.5,577.5 58.5,576.5 58.5,575.5C 59.4614,573.735 59.7947,571.735 59.5,569.5C 62.1667,569.5 64.8333,569.5 67.5,569.5C 67.5,572.5 67.5,575.5 67.5,578.5 Z"/></g>
<g><path style="opacity:1" fill="#b2c9d1" d="M 56.5,566.5 C 56.1984,569.059 56.5318,571.393 57.5,573.5C 57.5,575.5 57.5,577.5 57.5,579.5C 57.6107,580.117 57.944,580.617 58.5,581C 61.8168,581.498 65.1501,581.665 68.5,581.5C 65.0242,582.643 61.3575,582.81 57.5,582C 56.6195,581.292 55.9528,580.458 55.5,579.5C 55.1818,574.968 55.5151,570.634 56.5,566.5 Z"/></g>
<g><path style="opacity:1" fill="#c3e7e6" d="M 241.5,567.5 C 245.5,567.5 249.5,567.5 253.5,567.5C 250.167,568.167 246.833,568.833 243.5,569.5C 243.335,572.518 243.502,575.518 244,578.5C 244.383,579.056 244.883,579.389 245.5,579.5C 246.952,580.302 248.618,580.802 250.5,581C 248.527,581.495 246.527,581.662 244.5,581.5C 243.828,580.733 242.995,580.066 242,579.5C 241.501,575.514 241.334,571.514 241.5,567.5 Z"/></g>
<g><path style="opacity:1" fill="#6fccca" d="M 253.5,567.5 C 253.833,567.5 254.167,567.5 254.5,567.5C 259.802,578.834 256.468,583.5 244.5,581.5C 246.527,581.662 248.527,581.495 250.5,581C 248.618,580.802 246.952,580.302 245.5,579.5C 248.119,579.768 250.619,579.435 253,578.5C 253.498,575.518 253.665,572.518 253.5,569.5C 250.167,569.5 246.833,569.5 243.5,569.5C 246.833,568.833 250.167,568.167 253.5,567.5 Z"/></g>
<g><path style="opacity:1" fill="#6c909f" d="M 58.5,568.5 C 58.5,570.833 58.5,573.167 58.5,575.5C 58.5,576.5 58.5,577.5 58.5,578.5C 61.5,578.5 64.5,578.5 67.5,578.5C 67.8333,578.5 68.1667,578.5 68.5,578.5C 65.0381,579.482 61.3714,579.815 57.5,579.5C 57.5,577.5 57.5,575.5 57.5,573.5C 57.2155,571.585 57.5489,569.919 58.5,568.5 Z"/></g>
<g><path style="opacity:1" fill="#f2f4f5" d="M 99.5,580.5 C 108.5,580.5 117.5,580.5 126.5,580.5C 126.5,581.5 126.5,582.5 126.5,583.5C 118.833,583.5 111.167,583.5 103.5,583.5C 102.167,583.5 100.833,583.5 99.5,583.5C 99.5,582.5 99.5,581.5 99.5,580.5 Z"/></g>
<g><path style="opacity:1" fill="#eef1f2" d="M 193.5,580.5 C 201.167,580.5 208.833,580.5 216.5,580.5C 216.5,581.5 216.5,582.5 216.5,583.5C 208.833,583.5 201.167,583.5 193.5,583.5C 193.5,582.5 193.5,581.5 193.5,580.5 Z"/></g>
<g><path style="opacity:1" fill="#0b3d54" d="M 184.5,566.5 C 186.453,567.462 188.286,567.795 190,567.5C 190.732,570.529 191.565,573.529 192.5,576.5C 192.392,577.442 192.059,578.275 191.5,579C 192.416,579.278 193.082,579.778 193.5,580.5C 192.732,581.263 192.232,582.263 192,583.5C 191.751,582.376 191.251,581.376 190.5,580.5C 188.737,580.694 186.903,580.694 185,580.5C 184.333,581.167 183.667,581.833 183,582.5C 182.333,587.167 182.333,591.833 183,596.5C 183.333,595.5 183.667,594.5 184,593.5C 184.333,593.833 184.667,594.167 185,594.5C 185.465,593.069 186.299,591.903 187.5,591C 191.185,591.394 194.685,591.227 198,590.5C 200.756,594.537 204.256,597.704 208.5,600C 206.167,600.333 203.833,600.667 201.5,601C 208.679,601.171 215.679,601.671 222.5,602.5C 208.5,602.5 194.5,602.5 180.5,602.5C 180.5,591.167 180.5,579.833 180.5,568.5C 181.833,567.833 183.167,567.167 184.5,566.5 Z"/></g>
<g><path style="opacity:1" fill="#102040" d="M 99.5,583.5 C 100.833,583.5 102.167,583.5 103.5,583.5C 111.323,584.329 119.323,584.829 127.5,585C 122.833,585.333 118.167,585.667 113.5,586C 116.861,586.337 120.194,586.837 123.5,587.5C 124.442,587.392 125.275,587.059 126,586.5C 126.9,588.398 128.066,590.064 129.5,591.5C 131.729,590.423 134.063,589.756 136.5,589.5C 136.351,590.552 136.517,591.552 137,592.5C 137.333,590.5 137.667,588.5 138,586.5C 138.183,589.365 138.683,592.031 139.5,594.5C 139.5,597.167 139.5,599.833 139.5,602.5C 108.498,602.667 77.4982,602.5 46.5,602C 45.5842,601.722 44.9175,601.222 44.5,600.5C 45.2341,599.292 45.5674,597.959 45.5,596.5C 47.8211,596.229 49.8211,596.896 51.5,598.5C 52.6956,598.154 52.6956,597.654 51.5,597C 52.3333,596.833 53.1667,596.667 54,596.5C 66.156,600.184 77.656,598.851 88.5,592.5C 97.5498,598.761 108.217,600.927 120.5,599C 119.299,598.097 118.465,596.931 118,595.5C 117.439,596.022 116.772,596.355 116,596.5C 113.865,595.873 111.698,595.373 109.5,595C 107.647,592.429 105.981,589.762 104.5,587C 102.5,586.333 100.5,585.667 98.5,585C 99.056,584.617 99.3893,584.117 99.5,583.5 Z"/></g>
<g><path style="opacity:1" fill="#8ca8b4" d="M 180.5,568.5 C 180.5,579.833 180.5,591.167 180.5,602.5C 194.5,602.5 208.5,602.5 222.5,602.5C 235.167,602.5 247.833,602.5 260.5,602.5C 263.167,602.5 265.833,602.5 268.5,602.5C 239.005,603.498 209.338,603.831 179.5,603.5C 179.172,591.655 179.505,579.988 180.5,568.5 Z"/></g>
</svg>
